<svg width="195" height="66" viewBox="0 0 195 66" fill="none" xmlns="http://www.w3.org/2000/svg">
<path d="M46.5146 27.0572L43.1097 14.3737H45.5953L48.2682 25.1844H47.6212L50.4133 14.3737H52.8138L55.5888 25.1844H54.9419L57.6148 14.3737H60.1004L56.6954 27.0572H54.0396L51.2305 16.5358H51.9796L49.1705 27.0572H46.5146ZM65.2981 27.2615C64.3902 27.2615 63.5616 27.0515 62.8125 26.6315C62.0748 26.2116 61.4846 25.6384 61.0419 24.912C60.6106 24.1856 60.395 23.3571 60.395 22.4264C60.395 21.4957 60.6106 20.6672 61.0419 19.9408C61.4846 19.2144 62.0748 18.6412 62.8125 18.2213C63.5503 17.8014 64.3788 17.5914 65.2981 17.5914C66.2061 17.5914 67.029 17.8014 67.7667 18.2213C68.5045 18.6412 69.089 19.2144 69.5203 19.9408C69.9629 20.6558 70.1843 21.4844 70.1843 22.4264C70.1843 23.3571 69.9629 24.1856 69.5203 24.912C69.0776 25.6384 68.4874 26.2116 67.7497 26.6315C67.012 27.0515 66.1948 27.2615 65.2981 27.2615ZM65.2981 25.2185C65.7975 25.2185 66.2345 25.0993 66.609 24.861C66.9949 24.6226 67.2957 24.2935 67.5114 23.8735C67.7384 23.4422 67.8519 22.9599 67.8519 22.4264C67.8519 21.8816 67.7384 21.4049 67.5114 20.9963C67.2957 20.5764 66.9949 20.2472 66.609 20.0089C66.2345 19.7592 65.7975 19.6344 65.2981 19.6344C64.7874 19.6344 64.3391 19.7592 63.9532 20.0089C63.5673 20.2472 63.2608 20.5764 63.0338 20.9963C62.8182 21.4049 62.7104 21.8816 62.7104 22.4264C62.7104 22.9599 62.8182 23.4422 63.0338 23.8735C63.2608 24.2935 63.5673 24.6226 63.9532 24.861C64.3391 25.0993 64.7874 25.2185 65.2981 25.2185ZM71.8756 27.0572V17.7957H73.9696V19.8557L73.7994 19.5492C74.015 18.8569 74.3498 18.3745 74.8038 18.1021C75.2692 17.8297 75.8253 17.6935 76.4722 17.6935H77.017V19.6684H76.2169C75.5813 19.6684 75.0705 19.867 74.6846 20.2643C74.2987 20.6502 74.1058 21.195 74.1058 21.8987V27.0572H71.8756ZM78.2432 27.0572V14.1694H80.4735V27.0572H78.2432ZM86.8399 27.2615C85.9433 27.2615 85.1431 27.0515 84.4394 26.6315C83.7358 26.2002 83.1796 25.6157 82.771 24.878C82.3624 24.1402 82.1581 23.3231 82.1581 22.4264C82.1581 21.5184 82.3624 20.7012 82.771 19.9749C83.1796 19.2485 83.7358 18.6696 84.4394 18.2383C85.1545 17.807 85.949 17.5914 86.8229 17.5914C87.5266 17.5914 88.1508 17.7333 88.6956 18.017C89.2518 18.2894 89.6888 18.6753 90.0065 19.1747L89.6661 19.6344V14.1694H91.8963V27.0572H89.7852V25.2696L90.0236 25.7122C89.7058 26.2116 89.2631 26.5975 88.6956 26.8699C88.1281 27.1309 87.5096 27.2615 86.8399 27.2615ZM87.0783 25.2185C87.589 25.2185 88.0373 25.0993 88.4232 24.861C88.8091 24.6226 89.1099 24.2935 89.3256 23.8735C89.5526 23.4536 89.6661 22.9712 89.6661 22.4264C89.6661 21.893 89.5526 21.4163 89.3256 20.9963C89.1099 20.565 88.8091 20.2302 88.4232 19.9919C88.0373 19.7535 87.589 19.6344 87.0783 19.6344C86.5789 19.6344 86.1306 19.7592 85.7333 20.0089C85.3361 20.2472 85.024 20.5764 84.797 20.9963C84.5813 21.4049 84.4735 21.8816 84.4735 22.4264C84.4735 22.9712 84.5813 23.4536 84.797 23.8735C85.024 24.2935 85.3361 24.6226 85.7333 24.861C86.1306 25.0993 86.5789 25.2185 87.0783 25.2185ZM94.8565 19.1917L94.5671 14.3737H96.576L96.3036 19.1917H94.8565ZM102.782 27.2615C101.795 27.2615 100.932 27.0288 100.195 26.5634C99.4682 26.0867 98.9688 25.4455 98.6964 24.6396L100.365 23.8395C100.603 24.3616 100.932 24.7702 101.352 25.0653C101.784 25.3604 102.26 25.5079 102.782 25.5079C103.191 25.5079 103.514 25.4171 103.753 25.2355C103.991 25.0539 104.11 24.8156 104.11 24.5205C104.11 24.3389 104.059 24.1913 103.957 24.0778C103.866 23.953 103.736 23.8508 103.565 23.7714C103.407 23.6806 103.231 23.6068 103.038 23.5501L101.522 23.1244C100.739 22.8974 100.143 22.5513 99.7349 22.0859C99.3376 21.6206 99.139 21.0701 99.139 20.4345C99.139 19.867 99.2809 19.3733 99.5646 18.9534C99.8597 18.5221 100.263 18.1872 100.773 17.9489C101.295 17.7106 101.891 17.5914 102.561 17.5914C103.435 17.5914 104.207 17.8014 104.876 18.2213C105.546 18.6412 106.023 19.2314 106.306 19.9919L104.604 20.792C104.445 20.3721 104.178 20.0373 103.804 19.7876C103.429 19.5379 103.009 19.413 102.544 19.413C102.169 19.413 101.874 19.4982 101.659 19.6684C101.443 19.8387 101.335 20.06 101.335 20.3324C101.335 20.5026 101.381 20.6502 101.471 20.775C101.562 20.8999 101.687 21.002 101.846 21.0815C102.016 21.1609 102.209 21.2347 102.425 21.3028L103.906 21.7454C104.666 21.9724 105.251 22.3129 105.66 22.7669C106.079 23.2209 106.289 23.7771 106.289 24.4353C106.289 24.9915 106.142 25.4852 105.847 25.9165C105.552 26.3364 105.143 26.6656 104.621 26.9039C104.099 27.1423 103.486 27.2615 102.782 27.2615ZM111.216 27.0572V14.3737H113.43L118.18 20.8261H117.124L121.772 14.3737H123.985V27.0572H121.653V17.0125L122.555 17.2339L117.737 23.6522H117.465L112.766 17.2339L113.532 17.0125V27.0572H111.216ZM130.754 27.2615C129.846 27.2615 129.017 27.0515 128.268 26.6315C127.53 26.2116 126.94 25.6384 126.498 24.912C126.066 24.1856 125.851 23.3571 125.851 22.4264C125.851 21.4957 126.066 20.6672 126.498 19.9408C126.94 19.2144 127.53 18.6412 128.268 18.2213C129.006 17.8014 129.834 17.5914 130.754 17.5914C131.662 17.5914 132.485 17.8014 133.222 18.2213C133.96 18.6412 134.545 19.2144 134.976 19.9408C135.419 20.6558 135.64 21.4844 135.64 22.4264C135.64 23.3571 135.419 24.1856 134.976 24.912C134.533 25.6384 133.943 26.2116 133.205 26.6315C132.468 27.0515 131.65 27.2615 130.754 27.2615ZM130.754 25.2185C131.253 25.2185 131.69 25.0993 132.065 24.861C132.451 24.6226 132.751 24.2935 132.967 23.8735C133.194 23.4422 133.307 22.9599 133.307 22.4264C133.307 21.8816 133.194 21.4049 132.967 20.9963C132.751 20.5764 132.451 20.2472 132.065 20.0089C131.69 19.7592 131.253 19.6344 130.754 19.6344C130.243 19.6344 129.795 19.7592 129.409 20.0089C129.023 20.2472 128.716 20.5764 128.489 20.9963C128.274 21.4049 128.166 21.8816 128.166 22.4264C128.166 22.9599 128.274 23.4422 128.489 23.8735C128.716 24.2935 129.023 24.6226 129.409 24.861C129.795 25.0993 130.243 25.2185 130.754 25.2185ZM140.855 27.2615C139.868 27.2615 139.005 27.0288 138.268 26.5634C137.541 26.0867 137.042 25.4455 136.769 24.6396L138.438 23.8395C138.676 24.3616 139.005 24.7702 139.425 25.0653C139.857 25.3604 140.333 25.5079 140.855 25.5079C141.264 25.5079 141.587 25.4171 141.826 25.2355C142.064 25.0539 142.183 24.8156 142.183 24.5205C142.183 24.3389 142.132 24.1913 142.03 24.0778C141.939 23.953 141.809 23.8508 141.638 23.7714C141.48 23.6806 141.304 23.6068 141.111 23.5501L139.595 23.1244C138.812 22.8974 138.216 22.5513 137.808 22.0859C137.411 21.6206 137.212 21.0701 137.212 20.4345C137.212 19.867 137.354 19.3733 137.638 18.9534C137.933 18.5221 138.336 18.1872 138.846 17.9489C139.368 17.7106 139.964 17.5914 140.634 17.5914C141.508 17.5914 142.28 17.8014 142.949 18.2213C143.619 18.6412 144.096 19.2314 144.379 19.9919L142.677 20.792C142.518 20.3721 142.251 20.0373 141.877 19.7876C141.502 19.5379 141.082 19.413 140.617 19.413C140.242 19.413 139.947 19.4982 139.732 19.6684C139.516 19.8387 139.408 20.06 139.408 20.3324C139.408 20.5026 139.454 20.6502 139.544 20.775C139.635 20.8999 139.76 21.002 139.919 21.0815C140.089 21.1609 140.282 21.2347 140.498 21.3028L141.979 21.7454C142.739 21.9724 143.324 22.3129 143.732 22.7669C144.152 23.2209 144.362 23.7771 144.362 24.4353C144.362 24.9915 144.215 25.4852 143.92 25.9165C143.625 26.3364 143.216 26.6656 142.694 26.9039C142.172 27.1423 141.559 27.2615 140.855 27.2615ZM150.298 27.1593C149.254 27.1593 148.443 26.8756 147.864 26.3081C147.296 25.7292 147.013 24.9177 147.013 23.8735V19.7876H145.412V17.7957H145.583C146.037 17.7957 146.388 17.6765 146.638 17.4382C146.888 17.1998 147.013 16.8536 147.013 16.3996V15.6846H149.243V17.7957H151.371V19.7876H149.243V23.7544C149.243 24.0608 149.294 24.3218 149.396 24.5375C149.51 24.7531 149.68 24.9177 149.907 25.0312C150.145 25.1447 150.446 25.2015 150.809 25.2015C150.889 25.2015 150.979 25.1958 151.082 25.1844C151.195 25.1731 151.303 25.1617 151.405 25.1504V27.0572C151.246 27.0799 151.065 27.1026 150.86 27.1253C150.656 27.148 150.469 27.1593 150.298 27.1593ZM37.3233 47.0572V34.3737H42.0562C42.9188 34.3737 43.6792 34.5326 44.3375 34.8504C45.0071 35.1568 45.5292 35.6108 45.9038 36.2124C46.2783 36.8026 46.4656 37.5233 46.4656 38.3745C46.4656 39.2144 46.2727 39.9351 45.8868 40.5367C45.5122 41.1269 44.9958 41.5809 44.3375 41.8987C43.6792 42.2164 42.9188 42.3753 42.0562 42.3753H39.6387V47.0572H37.3233ZM39.6387 40.3324H42.0902C42.5102 40.3324 42.8734 40.2529 43.1798 40.094C43.4863 39.9238 43.7246 39.6911 43.8949 39.396C44.0651 39.1009 44.1502 38.7604 44.1502 38.3745C44.1502 37.9773 44.0651 37.6368 43.8949 37.353C43.7246 37.0579 43.4863 36.8309 43.1798 36.672C42.8734 36.5018 42.5102 36.4167 42.0902 36.4167H39.6387V40.3324ZM52.3716 47.2615C51.4636 47.2615 50.6351 47.0515 49.886 46.6315C49.1482 46.2116 48.5581 45.6384 48.1154 44.912C47.6841 44.1856 47.4685 43.3571 47.4685 42.4264C47.4685 41.4957 47.6841 40.6672 48.1154 39.9408C48.5581 39.2144 49.1482 38.6412 49.886 38.2213C50.6237 37.8014 51.4523 37.5914 52.3716 37.5914C53.2796 37.5914 54.1025 37.8014 54.8402 38.2213C55.5779 38.6412 56.1625 39.2144 56.5938 39.9408C57.0364 40.6558 57.2577 41.4844 57.2577 42.4264C57.2577 43.3571 57.0364 44.1856 56.5938 44.912C56.1511 45.6384 55.5609 46.2116 54.8232 46.6315C54.0854 47.0515 53.2682 47.2615 52.3716 47.2615ZM52.3716 45.2185C52.871 45.2185 53.308 45.0993 53.6825 44.861C54.0684 44.6226 54.3692 44.2935 54.5848 43.8735C54.8118 43.4422 54.9253 42.9599 54.9253 42.4264C54.9253 41.8816 54.8118 41.4049 54.5848 40.9963C54.3692 40.5764 54.0684 40.2472 53.6825 40.0089C53.308 39.7592 52.871 39.6344 52.3716 39.6344C51.8609 39.6344 51.4125 39.7592 51.0266 40.0089C50.6408 40.2472 50.3343 40.5764 50.1073 40.9963C49.8917 41.4049 49.7838 41.8816 49.7838 42.4264C49.7838 42.9599 49.8917 43.4422 50.1073 43.8735C50.3343 44.2935 50.6408 44.6226 51.0266 44.861C51.4125 45.0993 51.8609 45.2185 52.3716 45.2185ZM58.949 50.4621V37.7957H61.0431V39.6344L60.8388 39.1747C61.1566 38.6753 61.5879 38.2894 62.1327 38.017C62.6774 37.7333 63.3074 37.5914 64.0224 37.5914C64.8963 37.5914 65.6852 37.807 66.3889 38.2383C67.0925 38.6696 67.6487 39.2485 68.0573 39.9749C68.4772 40.7012 68.6872 41.5184 68.6872 42.4264C68.6872 43.3231 68.4829 44.1402 68.0743 44.878C67.6657 45.6157 67.1096 46.2002 66.4059 46.6315C65.7022 47.0515 64.902 47.2615 64.0054 47.2615C63.3357 47.2615 62.7172 47.1309 62.1497 46.8699C61.5935 46.5975 61.1509 46.2116 60.8217 45.7122L61.1793 45.2696V50.4621H58.949ZM63.75 45.2185C64.2608 45.2185 64.7147 45.0993 65.112 44.861C65.5092 44.6226 65.8157 44.2935 66.0313 43.8735C66.2583 43.4536 66.3718 42.9712 66.3718 42.4264C66.3718 41.8816 66.2583 41.4049 66.0313 40.9963C65.8157 40.5764 65.5092 40.2472 65.112 40.0089C64.7147 39.7592 64.2608 39.6344 63.75 39.6344C63.262 39.6344 62.8193 39.7535 62.4221 39.9919C62.0362 40.2302 61.7297 40.565 61.5027 40.9963C61.2871 41.4163 61.1793 41.893 61.1793 42.4264C61.1793 42.9712 61.2871 43.4536 61.5027 43.8735C61.7297 44.2935 62.0362 44.6226 62.4221 44.861C62.8193 45.0993 63.262 45.2185 63.75 45.2185ZM73.6904 47.2615C72.9753 47.2615 72.3511 47.1026 71.8176 46.7848C71.2955 46.467 70.8926 46.0243 70.6089 45.4568C70.3365 44.8893 70.2003 44.2254 70.2003 43.4649V37.7957H72.4305V43.2777C72.4305 43.6636 72.5043 44.004 72.6518 44.2991C72.8107 44.5829 73.0321 44.8099 73.3158 44.9801C73.6109 45.139 73.9401 45.2185 74.3032 45.2185C74.6664 45.2185 74.9899 45.139 75.2737 44.9801C75.5574 44.8099 75.7787 44.5772 75.9376 44.2821C76.0965 43.987 76.176 43.6352 76.176 43.2266V37.7957H78.4062V47.0572H76.2951V45.2355L76.4824 45.559C76.2668 46.1265 75.9093 46.5521 75.4099 46.8358C74.9218 47.1196 74.3486 47.2615 73.6904 47.2615ZM80.4794 47.0572V34.1694H82.7096V47.0572H80.4794ZM87.5779 47.2615C86.931 47.2615 86.3692 47.1536 85.8925 46.938C85.4158 46.7223 85.0469 46.4159 84.7859 46.0186C84.5248 45.6101 84.3943 45.139 84.3943 44.6056C84.3943 44.0948 84.5078 43.6409 84.7348 43.2436C84.9618 42.835 85.3136 42.4945 85.7903 42.2221C86.267 41.9497 86.8686 41.7568 87.5949 41.6433L90.6254 41.1496V42.852L88.0206 43.2947C87.5779 43.3741 87.2488 43.516 87.0331 43.7203C86.8175 43.9246 86.7097 44.1913 86.7097 44.5205C86.7097 44.8383 86.8288 45.0936 87.0672 45.2866C87.3169 45.4682 87.6233 45.559 87.9865 45.559C88.4519 45.559 88.8605 45.4625 89.2123 45.2696C89.5755 45.0653 89.8536 44.7872 90.0465 44.4353C90.2508 44.0835 90.353 43.6976 90.353 43.2777V40.8942C90.353 40.4969 90.1941 40.1678 89.8763 39.9068C89.5698 39.6344 89.1612 39.4982 88.6505 39.4982C88.1738 39.4982 87.7482 39.6287 87.3736 39.8897C87.0104 40.1394 86.7437 40.4742 86.5735 40.8942L84.7518 40.0089C84.9334 39.5209 85.2172 39.1009 85.603 38.7491C86.0003 38.3859 86.4656 38.1021 86.9991 37.8978C87.5325 37.6935 88.1114 37.5914 88.7356 37.5914C89.496 37.5914 90.1657 37.7333 90.7445 38.017C91.3234 38.2894 91.7717 38.6753 92.0895 39.1747C92.4186 39.6627 92.5832 40.2359 92.5832 40.8942V47.0572H90.4721V45.4739L90.9488 45.4398C90.7105 45.8371 90.4267 46.1719 90.0976 46.4443C89.7684 46.7053 89.3939 46.9096 88.974 47.0572C88.554 47.1934 88.0887 47.2615 87.5779 47.2615ZM94.6445 47.0572V37.7957H96.7386V39.8557L96.5683 39.5492C96.784 38.8569 97.1188 38.3745 97.5728 38.1021C98.0381 37.8297 98.5943 37.6935 99.2412 37.6935H99.786V39.6684H98.9858C98.3503 39.6684 97.8395 39.867 97.4536 40.2643C97.0677 40.6502 96.8748 41.195 96.8748 41.8987V47.0572H94.6445ZM106.473 47.0572V36.4167H103.187V34.3737H112.04V36.4167H108.805V47.0572H106.473ZM113.265 47.0572V34.1694H115.496V39.6173L115.189 39.2939C115.405 38.7377 115.757 38.3178 116.245 38.034C116.744 37.7389 117.323 37.5914 117.981 37.5914C118.662 37.5914 119.264 37.7389 119.786 38.034C120.319 38.3291 120.734 38.7434 121.029 39.2768C121.324 39.7989 121.471 40.4061 121.471 41.0985V47.0572H119.241V41.6263C119.241 41.2177 119.162 40.8658 119.003 40.5707C118.844 40.2756 118.623 40.0486 118.339 39.8897C118.066 39.7195 117.743 39.6344 117.368 39.6344C117.005 39.6344 116.682 39.7195 116.398 39.8897C116.114 40.0486 115.893 40.2756 115.734 40.5707C115.575 40.8658 115.496 41.2177 115.496 41.6263V47.0572H113.265ZM127.75 47.2615C126.796 47.2615 125.962 47.0458 125.247 46.6145C124.532 46.1832 123.976 45.5987 123.579 44.861C123.181 44.1232 122.983 43.306 122.983 42.4094C122.983 41.4787 123.181 40.6558 123.579 39.9408C123.987 39.2144 124.538 38.6412 125.23 38.2213C125.934 37.8014 126.717 37.5914 127.579 37.5914C128.306 37.5914 128.941 37.7106 129.486 37.9489C130.042 38.1872 130.513 38.5164 130.899 38.9363C131.285 39.3563 131.58 39.8387 131.784 40.3834C131.989 40.9169 132.091 41.4957 132.091 42.12C132.091 42.2789 132.08 42.4434 132.057 42.6137C132.046 42.7839 132.017 42.9315 131.972 43.0563H124.821V41.3539H130.712L129.656 42.154C129.759 41.6319 129.73 41.1666 129.571 40.758C129.424 40.3494 129.174 40.0259 128.822 39.7876C128.482 39.5492 128.067 39.4301 127.579 39.4301C127.114 39.4301 126.7 39.5492 126.337 39.7876C125.973 40.0146 125.695 40.3551 125.502 40.8091C125.321 41.2517 125.253 41.7908 125.298 42.4264C125.253 42.9939 125.326 43.499 125.519 43.9416C125.724 44.3729 126.019 44.7077 126.405 44.9461C126.802 45.1844 127.256 45.3036 127.767 45.3036C128.277 45.3036 128.709 45.1958 129.061 44.9801C129.424 44.7645 129.707 44.4751 129.912 44.1119L131.716 44.9972C131.535 45.4398 131.251 45.8314 130.865 46.1719C130.479 46.5124 130.02 46.7791 129.486 46.972C128.964 47.165 128.385 47.2615 127.75 47.2615ZM133.782 47.0572V37.7957H135.876V39.9408L135.637 39.5833C135.808 38.9136 136.148 38.4142 136.659 38.0851C137.17 37.756 137.771 37.5914 138.463 37.5914C139.224 37.5914 139.893 37.79 140.472 38.1872C141.051 38.5845 141.426 39.1066 141.596 39.7535L140.966 39.8046C141.25 39.0669 141.675 38.5164 142.243 38.1532C142.81 37.7787 143.463 37.5914 144.201 37.5914C144.859 37.5914 145.444 37.7389 145.954 38.034C146.476 38.3291 146.885 38.7434 147.18 39.2768C147.475 39.7989 147.623 40.4061 147.623 41.0985V47.0572H145.392V41.6263C145.392 41.2177 145.319 40.8658 145.171 40.5707C145.024 40.2756 144.819 40.0486 144.558 39.8897C144.297 39.7195 143.979 39.6344 143.605 39.6344C143.253 39.6344 142.941 39.7195 142.669 39.8897C142.396 40.0486 142.186 40.2756 142.039 40.5707C141.891 40.8658 141.817 41.2177 141.817 41.6263V47.0572H139.587V41.6263C139.587 41.2177 139.513 40.8658 139.366 40.5707C139.218 40.2756 139.008 40.0486 138.736 39.8897C138.475 39.7195 138.163 39.6344 137.799 39.6344C137.448 39.6344 137.135 39.7195 136.863 39.8897C136.591 40.0486 136.381 40.2756 136.233 40.5707C136.086 40.8658 136.012 41.2177 136.012 41.6263V47.0572H133.782ZM153.902 47.2615C152.949 47.2615 152.114 47.0458 151.399 46.6145C150.684 46.1832 150.128 45.5987 149.731 44.861C149.334 44.1232 149.135 43.306 149.135 42.4094C149.135 41.4787 149.334 40.6558 149.731 39.9408C150.139 39.2144 150.69 38.6412 151.382 38.2213C152.086 37.8014 152.869 37.5914 153.732 37.5914C154.458 37.5914 155.094 37.7106 155.638 37.9489C156.195 38.1872 156.666 38.5164 157.052 38.9363C157.437 39.3563 157.733 39.8387 157.937 40.3834C158.141 40.9169 158.243 41.4957 158.243 42.12C158.243 42.2789 158.232 42.4434 158.209 42.6137C158.198 42.7839 158.169 42.9315 158.124 43.0563H150.974V41.3539H156.864L155.809 42.154C155.911 41.6319 155.882 41.1666 155.724 40.758C155.576 40.3494 155.326 40.0259 154.975 39.7876C154.634 39.5492 154.22 39.4301 153.732 39.4301C153.266 39.4301 152.852 39.5492 152.489 39.7876C152.126 40.0146 151.848 40.3551 151.655 40.8091C151.473 41.2517 151.405 41.7908 151.45 42.4264C151.405 42.9939 151.479 43.499 151.672 43.9416C151.876 44.3729 152.171 44.7077 152.557 44.9461C152.954 45.1844 153.408 45.3036 153.919 45.3036C154.43 45.3036 154.861 45.1958 155.213 44.9801C155.576 44.7645 155.86 44.4751 156.064 44.1119L157.869 44.9972C157.687 45.4398 157.403 45.8314 157.017 46.1719C156.632 46.5124 156.172 46.7791 155.638 46.972C155.116 47.165 154.538 47.2615 153.902 47.2615Z" fill="white"/>
<path d="M21.8468 4.21803C22.045 4.10143 22.2491 3.99066 22.4531 3.88377C22.6572 3.77689 22.8632 3.67584 23.0711 3.58062C23.281 3.48734 23.4986 3.41155 23.7143 3.33576C23.5103 3.43875 23.3062 3.53786 23.1119 3.65641C22.9195 3.77689 22.7291 3.90126 22.5406 4.03147C22.354 4.15973 22.1713 4.29382 21.9906 4.42985C21.8177 4.5756 21.6486 4.72718 21.4815 4.8807C22.2549 5.31017 23.314 5.30823 24.241 4.81074C24.7482 4.54839 25.1388 4.15195 25.4225 3.73414C25.7004 3.30661 25.85 2.813 25.8325 2.33106C25.5022 1.99098 25.03 1.7811 24.4897 1.72863C23.9456 1.6645 23.3529 1.79859 22.7874 2.09009C22.6552 2.16005 22.527 2.23389 22.4104 2.3194C22.2938 2.40685 22.1869 2.50013 22.0858 2.59729C21.8857 2.79163 21.7166 3.00345 21.5845 3.22499C21.5184 3.33576 21.462 3.44653 21.4154 3.56118C21.3707 3.67778 21.3357 3.79632 21.3105 3.91487C21.2599 4.15001 21.2483 4.38515 21.2774 4.61058C21.4659 4.47649 21.6564 4.34434 21.8488 4.21997L21.8468 4.21803Z" fill="white"/>
<path d="M24.8247 48.6094C24.2398 49.0894 23.6743 49.7987 23.2487 50.6538C23.0349 51.0813 22.8581 51.5457 22.7298 52.0355C22.6657 52.2803 22.6132 52.5329 22.5763 52.7895C22.5394 53.046 22.5141 53.3083 22.5122 53.5648C22.5064 54.041 22.5549 54.4938 22.6502 54.9116C22.6987 55.1195 22.7551 55.3216 22.827 55.5062C22.9009 55.6889 22.9844 55.8599 23.0777 56.0193C23.2623 56.338 23.4819 56.61 23.7229 56.8219C23.9697 57.022 24.2417 57.16 24.5216 57.2319C24.5119 56.404 24.4905 55.6092 24.4944 54.7989C24.4944 54.4044 24.4905 54.0099 24.4885 53.6154C24.4885 53.423 24.4866 53.2306 24.4846 53.0402C24.4846 52.8458 24.4866 52.6534 24.4885 52.461C24.5157 52.8342 24.5565 53.1956 24.5954 53.5687C24.6323 53.9477 24.6693 54.3286 24.7081 54.7134C24.7431 55.1078 24.7878 55.4907 24.8306 55.8852C24.8733 56.2836 24.918 56.6858 24.9627 57.0881C25.431 56.5129 25.7789 55.7122 26.0082 54.8241C26.1229 54.3791 26.2064 53.9127 26.2608 53.4424C26.3152 52.9721 26.3366 52.5019 26.3386 52.0199C26.3386 51.5146 26.2997 51.0618 26.2297 50.6674C26.1928 50.473 26.1539 50.2806 26.1073 50.1038C26.0607 49.9269 26.0063 49.7657 25.9421 49.6219C25.6798 49.0544 25.3261 48.6793 24.8247 48.6152V48.6094Z" fill="white"/>
<path d="M19.6367 51.0199C19.5901 51.3969 19.5454 51.7778 19.4988 52.1587C19.456 52.5415 19.4152 52.9263 19.3724 53.313C19.9399 52.8738 20.4374 52.1975 20.8396 51.4144C21.0417 51.0218 21.2147 50.6059 21.3663 50.1726C21.5217 49.7353 21.65 49.2845 21.7452 48.8375C21.7958 48.6004 21.8346 48.3731 21.8618 48.1574C21.889 47.9416 21.9046 47.7376 21.9182 47.5355C21.9415 47.1352 21.9221 46.7815 21.856 46.4803C21.786 46.1849 21.6966 45.9167 21.5528 45.7146C21.411 45.5105 21.2244 45.3628 20.9932 45.2773C20.6647 45.4425 20.3383 45.6582 20.0137 45.9284C19.6892 46.1985 19.3744 46.5172 19.0868 46.8748C18.5116 47.5918 18.0413 48.478 17.7984 49.4671C17.6857 49.9238 17.6487 50.3514 17.6526 50.7653C17.6604 51.1734 17.709 51.5679 17.8178 51.906C17.9286 52.2422 18.0801 52.5434 18.2667 52.7922C18.36 52.9166 18.461 53.0293 18.5679 53.1264C18.6748 53.2236 18.7992 53.2974 18.9235 53.3596C18.9624 53.1672 19.0032 52.9748 19.0421 52.7825C19.0848 52.5881 19.1256 52.3957 19.1684 52.2014C19.252 51.8186 19.3336 51.4377 19.4152 51.0587C19.4949 50.6876 19.5726 50.3183 19.6503 49.9491C19.7339 49.5818 19.8155 49.2145 19.8991 48.8492C19.8544 49.2067 19.8077 49.5643 19.7631 49.9258C19.7222 50.2892 19.6795 50.6545 19.6387 51.0218L19.6367 51.0199Z" fill="white"/>
<path d="M15.8021 46.2787C15.5708 46.9589 15.3104 47.6721 15.0791 48.3795C16.3306 47.7809 17.4966 46.269 18.2293 44.658C18.3245 44.4462 18.4061 44.2402 18.4741 44.042C18.5091 43.9429 18.5382 43.8457 18.5693 43.7505C18.6004 43.6533 18.6296 43.5581 18.6548 43.4648C18.7559 43.0917 18.8064 42.7535 18.8064 42.4543C18.7986 42.1589 18.7637 41.8888 18.6704 41.6653C18.5771 41.4418 18.4314 41.263 18.2293 41.1348C16.8689 41.4885 15.2424 42.6797 14.3854 44.4481C14.1891 44.8543 14.0686 45.2507 13.987 45.6374C13.9112 46.0242 13.8821 46.3992 13.9073 46.7432C13.9812 47.4175 14.2319 47.9928 14.6438 48.3309C14.9587 47.6391 15.2715 46.9531 15.5844 46.269C15.734 45.9348 15.8837 45.6044 16.0333 45.2721C16.1849 44.9417 16.3365 44.6133 16.488 44.2868C16.3734 44.6133 16.2568 44.9437 16.1402 45.274C16.0275 45.6064 15.9148 45.9425 15.8001 46.2787H15.8021Z" fill="white"/>
<path d="M13.5142 40.1775C13.3432 40.471 13.1702 40.7663 12.9953 41.0637C12.8146 41.3668 12.6319 41.67 12.4492 41.977C12.2705 42.2841 12.0897 42.5911 11.909 42.9021C12.5542 42.7466 13.2304 42.3657 13.8659 41.8566C14.1827 41.602 14.4897 41.3144 14.7754 41.0054C15.0688 40.6925 15.3487 40.3563 15.5955 40.0104C15.8578 39.6431 16.0657 39.2894 16.2193 38.9591C16.3786 38.6268 16.4991 38.308 16.5535 38.0224C16.6546 37.451 16.5865 36.9749 16.2523 36.6504C15.5799 36.6893 14.8026 36.9127 14.0505 37.3169C13.6755 37.5191 13.3062 37.7659 12.9584 38.0574C12.7854 38.2031 12.6164 38.3605 12.457 38.5276C12.2957 38.6948 12.1422 38.8735 12.0081 39.0582C11.7555 39.4021 11.5534 39.7558 11.4057 40.1076C11.3299 40.2825 11.2696 40.4574 11.2191 40.6303C11.1744 40.8013 11.1472 40.9685 11.1278 41.1317C11.0928 41.4582 11.1084 41.7691 11.1686 42.0489C11.1997 42.1889 11.2424 42.321 11.2949 42.4434C11.3552 42.5639 11.4271 42.6728 11.5087 42.7738C11.9284 42.1869 12.3734 41.5923 12.7913 41.0151C12.9972 40.7294 13.2032 40.4438 13.4073 40.1581C13.5083 40.0182 13.6074 39.8763 13.7066 39.7364C13.8096 39.5965 13.9125 39.4565 14.0136 39.3147C13.9281 39.4585 13.8426 39.6023 13.7571 39.7461C13.6755 39.8899 13.5919 40.0337 13.5083 40.1795L13.5142 40.1775Z" fill="white"/>
<path d="M10.6389 36.3203C10.4135 36.5749 10.1842 36.8334 9.95681 37.0899C10.5923 37.0627 11.2996 36.8334 11.9934 36.4699C12.3393 36.2892 12.6813 36.0755 13.0097 35.8364C13.3459 35.5974 13.6685 35.3331 13.9639 35.0513C14.2787 34.754 14.5333 34.4606 14.7471 34.1749C14.9667 33.8892 15.1299 33.6133 15.2348 33.3529C15.2873 33.2227 15.3242 33.0963 15.3495 32.9739C15.3786 32.8515 15.3942 32.7329 15.3942 32.6202C15.3942 32.3929 15.3301 32.1849 15.2037 32.0023C13.9212 31.8235 12.1158 32.2801 10.7652 33.4889C10.464 33.7668 10.2114 34.0622 10.0073 34.3634C9.90628 34.515 9.81495 34.6685 9.73722 34.8201C9.65754 34.9736 9.59535 35.1252 9.55066 35.2768C9.45932 35.578 9.41657 35.8714 9.4224 36.1454C9.42629 36.2834 9.44183 36.4136 9.47098 36.5399C9.50208 36.6643 9.55066 36.7809 9.60896 36.8897C10.122 36.4155 10.6331 35.9433 11.1422 35.473C11.389 35.2418 11.6339 35.0105 11.8787 34.7812C12.1236 34.5538 12.3685 34.3265 12.6133 34.0991C12.1877 34.581 11.7583 35.0669 11.323 35.5585C11.0975 35.8092 10.8702 36.0619 10.6409 36.3164L10.6389 36.3203Z" fill="white"/>
<path d="M10.6108 30.0348C10.0939 30.4274 9.57305 30.8238 9.04641 31.2261C10.2552 31.4088 11.8603 30.8841 13.1876 30.0387C13.8716 29.5879 14.4041 29.1156 14.6898 28.659C14.8278 28.4296 14.9405 28.2062 14.9755 27.9905C15.0143 27.7728 14.9929 27.5649 14.9055 27.3647C14.3244 27.1645 13.5782 27.0907 12.8028 27.1801C12.0255 27.2695 11.2113 27.5241 10.4689 27.971C10.1211 28.177 9.84317 28.4122 9.59443 28.6609C9.34957 28.9096 9.14747 29.1739 8.99589 29.4402C8.718 29.9746 8.62083 30.5187 8.75492 30.9735C9.32819 30.6198 9.9073 30.2661 10.4573 29.9182C11.0053 29.5723 11.5494 29.2303 12.0916 28.8883C11.8467 29.0768 11.6019 29.2653 11.3551 29.4538C11.1083 29.6462 10.8595 29.8386 10.6108 30.0329V30.0348Z" fill="white"/>
<path d="M9.6753 23.8159C9.30996 24.2668 9.13895 24.7642 9.17199 25.2112C10.3982 24.7545 11.5448 24.292 12.6797 23.8451C12.155 24.1132 11.6225 24.3853 11.0842 24.6593C10.8083 24.7973 10.5323 24.9372 10.2525 25.0752C9.96874 25.2151 9.68113 25.355 9.4013 25.4969C9.95125 25.6912 10.6295 25.7379 11.3388 25.664C12.05 25.5902 12.8118 25.4036 13.5017 25.1199C13.6843 25.0441 13.8554 24.9664 14.0147 24.8828C14.176 24.8012 14.3315 24.7176 14.4714 24.6302C14.7532 24.4572 14.9825 24.2726 15.1593 24.0802C15.2448 23.983 15.3245 23.8878 15.3925 23.7926C15.4586 23.6954 15.5111 23.5983 15.548 23.4972C15.6218 23.299 15.6393 23.0969 15.5927 22.8928C15.0835 22.6033 14.3956 22.4031 13.6494 22.3526C12.9031 22.3021 12.0928 22.3992 11.3193 22.6907C10.9559 22.8229 10.6508 22.9939 10.3749 23.1843C10.1009 23.3748 9.86769 23.5866 9.67725 23.8101L9.6753 23.8159Z" fill="white"/>
<path d="M10.5879 19.8261C11.8161 19.6123 12.9723 19.3752 14.113 19.1517C13.5728 19.313 13.0267 19.4763 12.4748 19.6434C12.1931 19.725 11.9093 19.8066 11.6237 19.8902C11.3341 19.9718 11.0426 20.0554 10.7511 20.137C11.2311 20.4149 11.8607 20.5781 12.539 20.6326C13.2211 20.6889 13.9654 20.6442 14.663 20.4965C15.3917 20.3333 16.0078 20.104 16.4003 19.8028C16.5946 19.6492 16.7618 19.4938 16.8648 19.3189C16.9697 19.144 17.0202 18.9574 17.0125 18.7572C16.1438 18.0324 14.5892 17.5563 13.0326 17.8381C12.3213 17.9702 11.7364 18.2539 11.2991 18.6076C10.8813 18.9671 10.6306 19.4024 10.5859 19.828L10.5879 19.8261Z" fill="white"/>
<path d="M13.7378 13.9588C13.2889 14.227 12.9721 14.5846 12.8633 14.981C13.4482 14.981 14.0351 14.9829 14.6006 14.9752C15.1622 14.9655 15.7219 14.9557 16.2777 14.946C15.7452 15.0063 15.2069 15.0685 14.6628 15.1306C14.1031 15.187 13.5376 15.2434 12.9643 15.2997C13.7727 15.9857 15.1933 16.3316 16.5633 16.2986C16.9267 16.2889 17.2454 16.2442 17.5428 16.1859C17.8401 16.1276 18.0986 16.044 18.3123 15.9371C18.7321 15.7175 19.0139 15.4338 19.0663 15.0587C18.3784 14.2367 16.9909 13.5255 15.4887 13.5313C14.8085 13.5429 14.1964 13.6984 13.7378 13.9608V13.9588Z" fill="white"/>
<path d="M17.1375 12.0052C17.6972 12.2675 18.3268 12.4463 18.9778 12.5473C19.3198 12.5979 19.6346 12.6154 19.9184 12.6037C20.0602 12.5979 20.1904 12.5823 20.3206 12.5648C20.4489 12.5473 20.5694 12.524 20.6801 12.4929C21.1252 12.3686 21.4108 12.1159 21.5391 11.7875C21.2864 11.3483 20.8647 10.9052 20.3284 10.5399C20.0602 10.3572 19.7609 10.194 19.4442 10.0618C19.1294 9.93358 18.7951 9.83641 18.4453 9.78006C18.1227 9.72759 17.8118 9.71204 17.5203 9.72953C17.2269 9.74508 16.9704 9.81115 16.7333 9.89471C16.263 10.0677 15.8996 10.3456 15.7422 10.707C16.2863 10.8003 16.8266 10.8916 17.3649 10.9849C17.9012 11.0743 18.422 11.152 18.935 11.2259C17.944 11.189 16.8674 11.0996 15.7791 11.0199C16.0959 11.4066 16.5778 11.7428 17.1355 12.0032L17.1375 12.0052Z" fill="white"/>
<path d="M22.8568 9.68588C23.1269 9.72474 23.3718 9.72863 23.5855 9.69948C23.6944 9.68587 23.7915 9.66061 23.8868 9.6334C23.982 9.60814 24.0694 9.57316 24.1472 9.53041C24.3046 9.4449 24.4251 9.32636 24.5086 9.17478C24.1783 8.26919 23.2163 7.26061 21.9376 6.80587C21.3546 6.60765 20.7988 6.5649 20.3247 6.64069C20.0856 6.67567 19.8816 6.75729 19.7028 6.85834C19.526 6.96133 19.3783 7.08959 19.2714 7.23729C19.7669 7.41996 20.2567 7.59292 20.7367 7.75615C21.2166 7.91745 21.7025 8.09235 22.1689 8.24393C21.9357 8.19146 21.7005 8.13705 21.4615 8.07875C21.341 8.0496 21.2205 8.02045 21.1 7.98935C20.9815 7.96215 20.861 7.933 20.7405 7.90579C20.2586 7.79113 19.7611 7.66676 19.2539 7.53073C19.7164 8.35275 20.826 9.10482 21.9862 9.476C22.2913 9.56928 22.5886 9.64506 22.8568 9.68199V9.68588Z" fill="white"/>
<path d="M21.1852 60.4313C20.7771 60.5363 20.3612 60.6296 19.9395 60.7092C19.5178 60.7889 19.0864 60.8589 18.6647 60.8958C18.8765 60.8511 19.0845 60.8103 19.2943 60.7559C19.5062 60.7015 19.716 60.6432 19.922 60.5829C20.336 60.4605 20.744 60.3264 21.1405 60.1806C21.9314 59.8969 22.7126 59.5257 23.4472 59.1274C23.2257 58.9136 22.9497 58.7465 22.6329 58.6182C22.322 58.4783 21.9664 58.385 21.57 58.3325C21.3717 58.3073 21.1657 58.2937 20.9481 58.2898C20.7343 58.284 20.5167 58.282 20.2874 58.2937C19.8307 58.317 19.3429 58.387 18.8318 58.5016C18.5539 58.5677 18.2877 58.6338 18.0254 58.7115C17.763 58.7892 17.5065 58.8786 17.2578 58.9777C16.7603 59.174 16.2939 59.4111 15.8799 59.6773C15.0482 60.2098 14.4205 60.8705 14.1523 61.6012C14.5721 62.2581 15.3183 62.8119 16.2822 63.0781C16.5212 63.1481 16.77 63.2045 17.0265 63.2433C17.283 63.2841 17.5454 63.3094 17.8233 63.3055C18.3713 63.3055 18.9387 63.2375 19.5042 63.0937C20.0347 62.9635 20.5381 62.7536 20.9889 62.5087C21.4398 62.2619 21.8401 61.9763 22.1879 61.6634C22.8817 61.0377 23.3559 60.3089 23.5793 59.5957C23.1946 59.7609 22.802 59.9144 22.3997 60.0563C21.9994 60.1981 21.5894 60.3303 21.1832 60.4313H21.1852Z" fill="white"/>
<path d="M15.9153 56.8724C16.7023 56.4293 17.3067 55.8464 17.6701 55.2264C17.2717 55.3022 16.8655 55.3683 16.4613 55.4169C16.061 55.4596 15.6568 55.4888 15.2506 55.5043C14.8425 55.5199 14.4325 55.5238 14.0166 55.514C13.6066 55.4985 13.2043 55.4635 12.7924 55.4188C13.2082 55.4246 13.6202 55.4149 14.0283 55.3936C14.4442 55.3644 14.8562 55.3197 15.2623 55.2634C15.6685 55.207 16.0688 55.139 16.4652 55.0574C16.6634 55.0166 16.8578 54.9757 17.056 54.9252C17.2542 54.8747 17.4524 54.8222 17.6467 54.7659C17.5651 54.6434 17.4641 54.5327 17.3591 54.42C17.2542 54.3072 17.1337 54.2042 17.0016 54.1071C16.7373 53.9147 16.4205 53.7534 16.0571 53.6271C15.6976 53.4969 15.3089 53.3842 14.8698 53.3181C14.4364 53.2462 13.9525 53.219 13.4589 53.2151C12.3901 53.2073 11.3349 53.3842 10.4429 53.7165C9.99594 53.8836 9.59173 54.0876 9.24971 54.3306C8.90768 54.5715 8.62007 54.8572 8.41797 55.1701C8.54428 55.5199 8.75805 55.8561 9.03983 56.1651C9.32355 56.474 9.66946 56.7597 10.0931 56.9793C10.5109 57.2047 10.9812 57.3835 11.4826 57.504C11.7313 57.5662 11.9975 57.6051 12.2696 57.6284C12.5417 57.6517 12.8196 57.6595 13.0994 57.6478C13.6299 57.6284 14.1352 57.5468 14.6055 57.4166C15.0796 57.2805 15.5208 57.092 15.9133 56.8705L15.9153 56.8724Z" fill="white"/>
<path d="M12.8096 50.0205C12.0148 50.0069 11.255 49.9136 10.4777 49.7795C10.091 49.7115 9.70035 49.6318 9.31363 49.5385C8.93663 49.4394 8.55963 49.3248 8.18457 49.2004C8.57518 49.2878 8.96384 49.3636 9.3525 49.4258C9.74311 49.4861 10.1454 49.5249 10.5379 49.556C10.9324 49.5852 11.325 49.6027 11.7136 49.6085C12.1062 49.6124 12.4832 49.6085 12.8796 49.5813C12.8233 49.4511 12.763 49.3189 12.6853 49.1926C12.6075 49.0663 12.5162 48.9439 12.4113 48.8253C12.1994 48.5902 11.9332 48.3745 11.6165 48.1802C11.3094 47.98 10.9616 47.7973 10.5632 47.6438C10.1687 47.4883 9.72173 47.364 9.25339 47.2629C7.24984 46.8218 5.13941 47.0822 4.125 48.1024C4.17358 48.4542 4.30378 48.8117 4.50783 49.1576C4.70994 49.5036 4.98006 49.8378 5.33374 50.1274C5.68159 50.4208 6.0858 50.6832 6.53276 50.8969C6.64547 50.9494 6.75818 50.9999 6.87673 51.0485C6.99527 51.0951 7.11964 51.1359 7.24401 51.1729C7.4947 51.2487 7.7551 51.3108 8.02133 51.3575C10.0288 51.7228 11.8827 51.031 12.8116 50.0205H12.8096Z" fill="white"/>
<path d="M5.9595 44.7266C6.41229 44.7868 6.85343 44.7946 7.26929 44.7557C8.10103 44.678 8.83171 44.4176 9.37195 44.0328C9.00661 43.9454 8.64127 43.8462 8.27787 43.7355C7.92419 43.6208 7.57439 43.4945 7.2246 43.3546C6.8748 43.2166 6.52889 43.065 6.18493 42.9037C6.01197 42.8221 5.84096 42.7385 5.66995 42.653C5.50477 42.5636 5.34153 42.4723 5.17635 42.379C5.35125 42.4568 5.5242 42.5326 5.6991 42.6045C5.87594 42.6764 6.05861 42.7424 6.23934 42.8066C6.60079 42.9348 6.96225 43.0514 7.32565 43.1564C8.05439 43.3643 8.77147 43.5295 9.52547 43.6325C9.50216 43.4984 9.46329 43.3643 9.41082 43.2322C9.36418 43.0981 9.30199 42.964 9.22815 42.8318C9.07851 42.5675 8.87058 42.313 8.61406 42.0681C8.4858 41.9457 8.342 41.8271 8.19236 41.7105C8.04662 41.592 7.88727 41.4773 7.71625 41.3666C7.37618 41.145 6.98946 40.941 6.55999 40.7602C6.32679 40.6631 6.09748 40.5737 5.87011 40.496C5.6408 40.4182 5.40955 40.3502 5.17829 40.2938C4.71773 40.1811 4.25911 40.1131 3.81992 40.0937C2.94349 40.0548 2.14673 40.2103 1.57151 40.5951C1.52682 41.2713 1.77556 42.037 2.31969 42.7113C2.58786 43.0495 2.90656 43.3721 3.29328 43.6539C3.68389 43.9318 4.12502 44.1747 4.60502 44.3632C5.05781 44.542 5.5106 44.6624 5.95756 44.7246L5.9595 44.7266Z" fill="white"/>
<path d="M2.73108 37.129C3.12557 37.3816 3.53172 37.576 3.93787 37.7198C4.35374 37.8616 4.76572 37.9491 5.1641 37.9899C5.95891 38.0715 6.69737 37.9627 7.27648 37.7023C6.95 37.5526 6.62352 37.3914 6.30288 37.2184C5.99195 37.0454 5.68491 36.8608 5.38175 36.6645C5.07859 36.4683 4.77932 36.2642 4.48394 36.0485C4.18661 35.8328 3.91649 35.6035 3.64054 35.3664C3.94176 35.5782 4.24103 35.7784 4.55584 35.9669C4.8726 36.1535 5.19325 36.3303 5.51584 36.4955C6.1649 36.8258 6.81008 37.1135 7.49801 37.3525C7.5019 37.2223 7.4883 37.0882 7.46498 36.9541C7.44554 36.8181 7.41251 36.682 7.36587 36.5441C7.27259 36.2681 7.1249 35.9883 6.92668 35.7123C6.82563 35.5743 6.71875 35.4344 6.60409 35.2964C6.48749 35.1585 6.35729 35.0205 6.21737 34.8864C5.93559 34.6163 5.60717 34.352 5.23794 34.1032C3.68718 33.0247 1.79829 32.5194 0.574003 33.0305C0.230037 34.2879 1.03845 36.0738 2.73302 37.129H2.73108Z" fill="white"/>
<path d="M2.44088 29.9353C3.73318 31.1654 5.42581 31.5774 6.60539 31.3015C6.03406 30.8992 5.52103 30.46 5.01577 29.9859C4.76508 29.7488 4.51828 29.502 4.28314 29.2474C4.05383 28.9928 3.83229 28.7285 3.61658 28.4565C3.86144 28.7091 4.11213 28.9501 4.3667 29.1833C4.62128 29.4165 4.89917 29.6399 5.17123 29.8518C5.72313 30.2793 6.28086 30.666 6.87551 31.0158C6.99017 30.528 6.91632 29.9664 6.63843 29.3756C6.51406 29.0803 6.34305 28.7771 6.1254 28.472C5.91163 28.1669 5.63763 27.8618 5.35002 27.5625C4.71455 26.9173 3.9761 26.3946 3.23958 26.0623C2.50307 25.73 1.77821 25.592 1.15247 25.7222C1.01838 26.0001 0.944535 26.3207 0.928989 26.6667C0.915385 27.0126 0.946478 27.3818 1.06696 27.7588C1.29627 28.5128 1.73935 29.2863 2.44088 29.9334V29.9353Z" fill="white"/>
<path d="M2.72575 21.9616C2.79959 22.154 2.8851 22.3445 2.99004 22.5349C3.09692 22.7254 3.21741 22.9119 3.35149 23.0946C3.8587 23.7845 4.47278 24.3033 5.12185 24.6434C5.77286 24.9835 6.43553 25.1429 7.01657 25.1195C6.78338 24.8805 6.57156 24.6357 6.36362 24.383C6.15569 24.1304 5.95553 23.87 5.7612 23.6018C5.36476 23.0655 5.02857 22.5058 4.71764 21.9208C5.44638 23.0344 6.35391 24.0352 7.31973 24.8999C7.52572 24.4646 7.53932 23.9205 7.39358 23.3181C7.32945 23.0188 7.22062 22.704 7.06904 22.3795C6.91941 22.0549 6.71925 21.7207 6.5016 21.3884C6.01771 20.6713 5.41334 20.0514 4.77983 19.6122C4.14825 19.173 3.48947 18.9165 2.87733 18.9281C2.70437 19.1652 2.58 19.4509 2.50421 19.7715C2.46729 19.9309 2.44203 20.0999 2.43037 20.2748C2.41676 20.4497 2.41871 20.6305 2.44203 20.817C2.48284 21.1901 2.57806 21.5769 2.72381 21.9616H2.72575Z" fill="white"/>
<path d="M6.81655 18.5629C7.36651 18.9943 7.96116 19.2586 8.50917 19.3402C8.33233 19.074 8.17687 18.8097 8.02723 18.5357C7.87565 18.2636 7.73379 17.9838 7.59776 17.7C7.46367 17.4163 7.32958 17.1248 7.21881 16.8333C7.10805 16.5418 7.00311 16.2464 6.90789 15.9452C7.39954 17.1132 8.07776 18.2092 8.83176 19.1867C9.09994 18.8136 9.20876 18.3064 9.17573 17.7156C9.16018 17.1326 8.9814 16.4563 8.67047 15.7528C8.00974 14.2448 6.8321 13.0147 5.69332 12.8301C5.49121 13.0205 5.32409 13.2673 5.19777 13.5549C5.07535 13.8425 4.98207 14.1651 4.96263 14.5227C4.91599 15.234 5.03648 16.0288 5.4232 16.8081C5.77882 17.5407 6.26659 18.1354 6.81461 18.5648L6.81655 18.5629Z" fill="white"/>
<path d="M10.932 14.1271C10.693 13.5713 10.5142 13.0155 10.3568 12.4364C10.2791 12.1488 10.2091 11.8573 10.1469 11.5619C10.0867 11.2665 10.0459 10.9769 10.007 10.6796C10.075 10.975 10.1489 11.2645 10.2363 11.5522C10.3277 11.8417 10.4268 12.1293 10.5317 12.4092C10.7455 12.9727 10.9825 13.513 11.2604 14.0396C11.5675 13.7326 11.7676 13.2817 11.8318 12.7201C11.9056 12.1662 11.8726 11.5133 11.688 10.7962C11.3207 9.27264 10.4326 7.93368 9.39292 7.56445C8.94985 7.85207 8.58839 8.36122 8.42904 9.02C8.34548 9.34648 8.30078 9.70211 8.30078 10.0713C8.30272 10.4425 8.3688 10.839 8.47568 11.2315C8.87794 12.7162 9.9351 13.7909 10.932 14.1251V14.1271Z" fill="white"/>
<path d="M13.0324 8.5149C13.3609 9.05126 13.7787 9.4613 14.2179 9.70422C13.9613 8.59264 13.8778 7.47717 13.9128 6.33255C13.9477 6.90778 14.0235 7.47911 14.1246 8.0349C14.1751 8.3128 14.2354 8.58875 14.3014 8.86082C14.3733 9.13677 14.453 9.41078 14.5405 9.6809C14.8669 9.43798 15.1332 9.05515 15.2906 8.54794C15.3722 8.29725 15.4188 8.00575 15.4538 7.70648C15.4868 7.40527 15.4946 7.07879 15.4694 6.73288C15.4441 6.35976 15.3838 5.99053 15.2945 5.64267C15.2089 5.29676 15.0982 4.97028 14.9583 4.67101C14.6804 4.07441 14.2995 3.59635 13.8447 3.33789C12.912 3.71101 12.2435 5.05773 12.397 6.5949C12.4572 7.31393 12.704 7.98243 13.0305 8.5149H13.0324Z" fill="white"/>
<path d="M17.9623 5.98544C17.9429 5.45686 17.9526 4.92245 17.9934 4.38609C18.0031 4.252 18.0148 4.11791 18.0303 3.98382C18.0459 3.85168 18.0653 3.72147 18.0867 3.59127C18.1275 3.32892 18.1761 3.06657 18.2324 2.80617C18.1741 3.34836 18.1372 3.875 18.1489 4.41718C18.1605 4.95937 18.2013 5.49378 18.2694 6.02042C18.4462 5.9388 18.6094 5.81832 18.7571 5.65897C18.9048 5.50156 19.0311 5.29945 19.1516 5.08374C19.3868 4.64649 19.5461 4.07516 19.6083 3.41831C19.7599 2.02884 19.4004 0.62576 18.6386 0.00195312C18.4093 0.0544229 18.1839 0.163248 17.972 0.318714C17.8671 0.396447 17.7641 0.485841 17.6669 0.58495C17.5698 0.68406 17.4823 0.802601 17.3988 0.926974C17.2316 1.17572 17.0898 1.46139 16.9829 1.77426C16.8741 2.08714 16.7983 2.42528 16.7769 2.79451C16.6797 4.1801 17.2219 5.39079 17.9623 5.98544Z" fill="white"/>
<path d="M27.7062 59.456V59.4501L27.5449 59.3802C27.5177 59.3685 27.4905 59.3549 27.4633 59.3413L26.7579 59.042L26.2818 58.838C26.1263 58.7642 25.9709 58.6864 25.8154 58.6106L24.8845 58.154C24.5794 57.9907 24.2802 57.8197 23.977 57.6526L23.5242 57.3999C23.3726 57.3164 23.2308 57.2192 23.0831 57.1279L22.2047 56.576C21.9132 56.3894 21.6373 56.1815 21.3516 55.9852C21.0698 55.785 20.7803 55.5946 20.5121 55.375L19.6959 54.7356C19.6279 54.6812 19.5579 54.6307 19.4919 54.5743L19.2956 54.4033L18.905 54.0633L18.5124 53.7232C18.3803 53.6105 18.2501 53.4958 18.1296 53.3734L17.3834 52.6524C17.1288 52.4173 16.8995 52.1588 16.6624 51.9062C16.4273 51.6516 16.1863 51.4028 15.957 51.1424L15.2885 50.3457L14.9542 49.9473L14.6414 49.5314L14.0156 48.6997C13.8135 48.4179 13.627 48.1264 13.4307 47.8407C13.0304 47.2733 12.6883 46.6709 12.3288 46.0762C12.1423 45.7828 11.9907 45.4699 11.8274 45.1648C11.6662 44.8577 11.501 44.5526 11.3436 44.2436L10.9063 43.2972L10.6887 42.825C10.6129 42.6695 10.5565 42.5044 10.4905 42.3431C10.2339 41.6979 9.96381 41.0566 9.75394 40.3939L9.58487 39.9003L9.50131 39.6535L9.4294 39.4028L9.13985 38.402C8.79006 37.0572 8.48301 35.6969 8.31395 34.3152L8.2401 33.7983L8.18957 33.2794C8.15848 32.9335 8.11961 32.5876 8.09435 32.2397C8.06326 31.544 8.01273 30.8483 8.02634 30.1526C8.01079 29.4549 8.05549 28.7592 8.08463 28.0635C8.10601 27.7157 8.14488 27.3698 8.17403 27.0219L8.22261 26.5011L8.29257 25.9822C8.46164 24.5986 8.75313 23.2305 9.1107 21.8818C9.20592 21.5456 9.29532 21.2094 9.39637 20.8752L9.72479 19.8802C9.82778 19.5459 9.96381 19.2253 10.0843 18.8969C10.2087 18.5704 10.3272 18.242 10.473 17.9252C11.5593 15.3523 13.0031 12.927 14.756 10.7446L15.4245 9.93621C15.6558 9.67386 15.8948 9.41734 16.1299 9.15888C16.2485 9.03062 16.3631 8.89653 16.4875 8.7741L16.8587 8.40293L17.2318 8.03175L17.4183 7.84713L17.6127 7.67029L18.3919 6.96681C18.6562 6.7375 18.9322 6.52179 19.2023 6.29636C19.3383 6.18559 19.4724 6.07288 19.6104 5.96406L20.034 5.65118L20.4577 5.3383C20.5995 5.23531 20.7375 5.12648 20.8852 5.0332C20.7356 5.12454 20.5957 5.23142 20.4519 5.33248L20.0243 5.63952L19.5968 5.94656C19.4569 6.05345 19.3208 6.16422 19.1848 6.27304C18.9128 6.49264 18.631 6.70446 18.3647 6.93183L17.5738 7.6256L17.3756 7.79855L17.1871 7.98122L16.8081 8.34657L16.4292 8.71191C16.3029 8.8324 16.1863 8.96649 16.0658 9.09281C15.8268 9.34932 15.5839 9.6039 15.3468 9.86236L14.6627 10.665C12.871 12.8298 11.3844 15.2493 10.2514 17.8261C10.0998 18.1448 9.97547 18.4732 9.84527 18.7997C9.71896 19.1281 9.57515 19.4507 9.46827 19.785L9.12236 20.7838C9.01742 21.12 8.92026 21.4582 8.81921 21.7963C8.43832 23.1508 8.1235 24.5306 7.93306 25.9278L7.85338 26.4506L7.79703 26.9772C7.76205 27.329 7.71929 27.6788 7.69209 28.0305C7.65322 28.734 7.59881 29.4394 7.60464 30.1448C7.58132 30.8503 7.62213 31.5557 7.6435 32.2611C7.66488 32.6128 7.69792 32.9646 7.72512 33.3163L7.76788 33.8449L7.83589 34.3696C7.98941 35.7746 8.28091 37.1622 8.6171 38.5342L8.89694 39.5563L8.9669 39.8129L9.04852 40.0655L9.2137 40.5688C9.41774 41.247 9.68398 41.9019 9.93467 42.5646C10.0007 42.7278 10.0552 42.8969 10.1309 43.0582L10.3466 43.544L10.7781 44.5138C10.9355 44.8305 11.0987 45.1453 11.2581 45.4602C11.4213 45.775 11.5729 46.0956 11.7575 46.3968C12.1151 47.009 12.4551 47.6309 12.8574 48.2158C13.0537 48.5112 13.2402 48.8124 13.4423 49.1039L14.07 49.9628L14.3848 50.3923L14.721 50.8043L15.3934 51.6302C15.6247 51.8984 15.8676 52.1569 16.1047 52.4211C16.3437 52.6835 16.5769 52.9517 16.8334 53.1965L17.5894 53.9467C17.7137 54.0749 17.8439 54.1935 17.978 54.3101L18.3745 54.6657L18.7709 55.0213L18.9691 55.1982C19.0371 55.2565 19.1071 55.3109 19.1751 55.3672L20.0049 56.0357C20.277 56.265 20.5704 56.4652 20.858 56.6751C21.1476 56.8811 21.4293 57.0987 21.7267 57.295L22.6225 57.8741C22.7722 57.9693 22.9179 58.0723 23.0734 58.1598L23.5359 58.426C23.8449 58.6029 24.15 58.7836 24.4628 58.9565L25.4151 59.4404C25.5744 59.5201 25.7318 59.6037 25.8912 59.6814L26.3789 59.8991L27.0844 60.2119C29.3988 61.2302 31.2625 63.0511 32.3313 65.3404L32.4848 65.6688L33.3554 65.2626L33.2019 64.9342C32.0709 62.5148 30.1276 60.5753 27.7121 59.4463L27.7062 59.456Z" fill="white"/>
<path d="M170.747 4.80959C171.674 5.30902 172.733 5.31096 173.507 4.87955C173.342 4.72602 173.173 4.57444 172.998 4.42869C172.819 4.29266 172.634 4.15857 172.448 4.03031C172.261 3.90205 172.071 3.77574 171.876 3.65525C171.682 3.53671 171.476 3.4376 171.274 3.3346C171.49 3.41039 171.707 3.48618 171.917 3.57946C172.125 3.67468 172.331 3.77574 172.535 3.88262C172.739 3.9895 172.941 4.10027 173.141 4.21687C173.334 4.34319 173.526 4.47339 173.713 4.60748C173.742 4.38205 173.73 4.14691 173.68 3.91177C173.654 3.79323 173.619 3.67663 173.575 3.55808C173.53 3.44149 173.472 3.33266 173.406 3.22189C173.274 3.00229 173.106 2.79047 172.904 2.5942C172.803 2.49703 172.696 2.40375 172.58 2.3163C172.463 2.22885 172.335 2.15695 172.203 2.08699C171.637 1.79355 171.045 1.65946 170.5 1.72553C169.96 1.77994 169.488 1.98788 169.158 2.32796C169.14 2.8099 169.29 3.30351 169.568 3.73104C169.851 4.14885 170.24 4.54529 170.749 4.80764L170.747 4.80959Z" fill="white"/>
<path d="M168.983 54.8222C169.212 55.7103 169.558 56.5129 170.028 57.0861C170.073 56.6839 170.116 56.2816 170.16 55.8832C170.205 55.4907 170.25 55.1059 170.283 54.7114C170.32 54.3286 170.359 53.9457 170.395 53.5668C170.434 53.1937 170.473 52.8322 170.502 52.4591C170.502 52.6515 170.504 52.8458 170.506 53.0382C170.506 53.2306 170.504 53.421 170.502 53.6134C170.502 54.006 170.498 54.4005 170.497 54.7969C170.498 55.6073 170.479 56.4001 170.469 57.2299C170.747 57.158 171.019 57.022 171.268 56.8199C171.509 56.6081 171.729 56.336 171.913 56.0173C172.006 55.858 172.09 55.6869 172.164 55.5043C172.236 55.3197 172.292 55.1176 172.341 54.9096C172.436 54.4918 172.485 54.041 172.479 53.5629C172.479 53.3083 172.453 53.044 172.415 52.7875C172.378 52.531 172.325 52.2803 172.261 52.0335C172.133 51.5438 171.954 51.0793 171.742 50.6518C171.317 49.7967 170.751 49.0874 170.166 48.6074C169.665 48.6716 169.311 49.0466 169.049 49.6141C168.985 49.7598 168.93 49.9211 168.884 50.096C168.837 50.2729 168.8 50.4652 168.761 50.6596C168.691 51.0541 168.654 51.5088 168.652 52.0121C168.654 52.4941 168.676 52.9644 168.73 53.4346C168.784 53.9049 168.87 54.3713 168.983 54.8163V54.8222Z" fill="white"/>
<path d="M175.571 51.0568C175.652 51.4357 175.736 51.8166 175.818 52.1995C175.86 52.3938 175.901 52.5862 175.944 52.7805C175.983 52.9729 176.024 53.1653 176.062 53.3577C176.187 53.2935 176.311 53.2216 176.418 53.1245C176.525 53.0273 176.626 52.9146 176.719 52.7902C176.904 52.5415 177.057 52.2422 177.168 51.9041C177.277 51.564 177.326 51.1714 177.333 50.7633C177.337 50.3494 177.3 49.9238 177.188 49.4652C176.943 48.476 176.474 47.5899 175.899 46.8728C175.613 46.5152 175.297 46.1965 174.972 45.9264C174.648 45.6563 174.319 45.4406 173.993 45.2754C173.76 45.3609 173.573 45.5086 173.433 45.7126C173.291 45.9167 173.202 46.1829 173.13 46.4783C173.066 46.7795 173.044 47.1332 173.068 47.5335C173.081 47.7356 173.097 47.9397 173.124 48.1554C173.151 48.3711 173.19 48.5985 173.241 48.8356C173.336 49.2825 173.464 49.7334 173.62 50.1706C173.771 50.604 173.944 51.0199 174.146 51.4124C174.549 52.1956 175.046 52.8718 175.613 53.311C175.571 52.9243 175.53 52.5395 175.487 52.1567C175.441 51.7758 175.394 51.3949 175.349 51.0179C175.306 50.6506 175.266 50.2853 175.225 49.9219C175.178 49.5604 175.133 49.2009 175.089 48.8453C175.17 49.2106 175.254 49.5779 175.338 49.9452C175.415 50.3144 175.495 50.6837 175.573 51.0548L175.571 51.0568Z" fill="white"/>
<path d="M179.406 46.2671C179.717 46.9511 180.029 47.6371 180.346 48.3289C180.76 47.9908 181.009 47.4156 181.083 46.7412C181.108 46.3973 181.079 46.0203 181.003 45.6355C180.923 45.2468 180.801 44.8523 180.605 44.4462C179.75 42.6778 178.121 41.4865 176.761 41.1328C176.559 41.2611 176.411 41.4399 176.32 41.6633C176.226 41.8868 176.193 42.1569 176.184 42.4523C176.184 42.7516 176.232 43.0897 176.335 43.4629C176.36 43.5561 176.39 43.6514 176.421 43.7485C176.452 43.8457 176.481 43.9409 176.516 44.04C176.584 44.2382 176.667 44.4442 176.761 44.6561C177.493 46.269 178.661 47.779 179.911 48.3775C179.68 47.6702 179.419 46.957 179.188 46.2768C179.073 45.9406 178.961 45.6063 178.848 45.2721C178.731 44.9417 178.615 44.6114 178.5 44.2849C178.652 44.6114 178.803 44.9398 178.955 45.2701C179.104 45.6005 179.254 45.9328 179.404 46.2671H179.406Z" fill="white"/>
<path d="M181.58 40.1522C181.784 40.436 181.99 40.7216 182.196 41.0092C182.613 41.5864 183.058 42.1791 183.478 42.7679C183.56 42.6688 183.632 42.5581 183.692 42.4376C183.746 42.3152 183.787 42.183 183.818 42.0431C183.88 41.7633 183.894 41.4543 183.859 41.1258C183.842 40.9626 183.814 40.7955 183.768 40.6245C183.719 40.4515 183.657 40.2766 183.581 40.1017C183.431 39.75 183.231 39.3963 182.979 39.0523C182.845 38.8677 182.691 38.6889 182.53 38.5218C182.368 38.3547 182.201 38.1973 182.028 38.0515C181.681 37.76 181.311 37.5132 180.936 37.3111C180.184 36.9069 179.409 36.6815 178.735 36.6445C178.402 36.9691 178.332 37.4452 178.433 38.0165C178.488 38.3022 178.61 38.6209 178.768 38.9532C178.921 39.2836 179.129 39.6373 179.391 40.0045C179.638 40.3524 179.918 40.6886 180.211 40.9995C180.497 41.3085 180.804 41.5961 181.121 41.8507C181.756 42.3618 182.433 42.7407 183.078 42.8962C182.897 42.5872 182.716 42.2782 182.538 41.9712C182.355 41.6661 182.172 41.361 181.991 41.0578C181.819 40.7605 181.646 40.4651 181.473 40.1717C181.389 40.0279 181.307 39.8821 181.224 39.7383C181.138 39.5945 181.053 39.4507 180.967 39.3069C181.07 39.4468 181.171 39.5867 181.274 39.7286C181.374 39.8685 181.475 40.0084 181.574 40.1503L181.58 40.1522Z" fill="white"/>
<path d="M183.854 35.4769C184.361 35.9472 184.872 36.4175 185.387 36.8936C185.445 36.7848 185.494 36.6682 185.525 36.5438C185.554 36.4194 185.569 36.2873 185.573 36.1493C185.581 35.8753 185.538 35.5819 185.445 35.2807C185.402 35.131 185.338 34.9775 185.259 34.824C185.181 34.6705 185.091 34.5189 184.988 34.3673C184.784 34.0641 184.532 33.7688 184.231 33.4928C182.88 32.2841 181.077 31.8274 179.792 32.0062C179.666 32.1908 179.604 32.3987 179.602 32.6241C179.602 32.7368 179.615 32.8554 179.646 32.9778C179.672 33.1002 179.708 33.2266 179.761 33.3568C179.866 33.6172 180.029 33.8931 180.249 34.1788C180.462 34.4645 180.717 34.7579 181.032 35.0552C181.327 35.337 181.65 35.6013 181.986 35.8403C182.312 36.0794 182.655 36.2931 183.002 36.4739C183.694 36.8353 184.403 37.0666 185.039 37.0938C184.81 36.8353 184.582 36.5788 184.357 36.3242C184.128 36.0696 183.9 35.817 183.675 35.5663C183.239 35.0747 182.81 34.5869 182.384 34.1069C182.627 34.3323 182.872 34.5597 183.119 34.789C183.364 35.0183 183.609 35.2496 183.855 35.4808L183.854 35.4769Z" fill="white"/>
<path d="M186.239 30.9735C186.373 30.5187 186.276 29.9746 185.998 29.4402C185.847 29.1739 185.644 28.9096 185.4 28.6609C185.151 28.4122 184.873 28.177 184.525 27.971C183.785 27.5241 182.969 27.2675 182.191 27.1801C181.416 27.0907 180.67 27.1645 180.089 27.3647C180.001 27.5629 179.98 27.7728 180.019 27.9905C180.054 28.2081 180.166 28.4296 180.304 28.659C180.592 29.1156 181.124 29.5879 181.806 30.0387C183.134 30.8841 184.737 31.4088 185.948 31.2261C185.421 30.8238 184.898 30.4274 184.383 30.0348C184.135 29.8405 183.886 29.6481 183.639 29.4557C183.392 29.2653 183.147 29.0768 182.902 28.8902C183.445 29.2303 183.989 29.5743 184.537 29.9202C185.087 30.268 185.666 30.6198 186.239 30.9754V30.9735Z" fill="white"/>
<path d="M184.623 23.1902C184.347 22.9997 184.042 22.8287 183.679 22.6966C182.905 22.4051 182.093 22.3079 181.349 22.3584C180.602 22.409 179.914 22.6091 179.405 22.8987C179.359 23.1008 179.374 23.3048 179.45 23.5031C179.487 23.6022 179.539 23.7013 179.605 23.7984C179.673 23.8956 179.753 23.9908 179.839 24.0861C180.014 24.2765 180.245 24.4611 180.527 24.636C180.666 24.7235 180.822 24.807 180.983 24.8887C181.143 24.9703 181.314 25.0499 181.496 25.1257C182.186 25.4095 182.948 25.596 183.659 25.6699C184.368 25.7437 185.049 25.6971 185.597 25.5027C185.317 25.3609 185.027 25.219 184.745 25.081C184.468 24.9411 184.19 24.8031 183.914 24.6652C183.375 24.3912 182.845 24.1191 182.318 23.8509C183.451 24.2979 184.6 24.7604 185.826 25.2171C185.859 24.7682 185.688 24.2707 185.323 23.8218C185.132 23.5983 184.899 23.3865 184.625 23.196L184.623 23.1902Z" fill="white"/>
<path d="M183.691 18.6057C183.253 18.2539 182.67 17.9682 181.957 17.8361C180.401 17.5543 178.846 18.0304 177.977 18.7553C177.97 18.9535 178.02 19.142 178.125 19.3169C178.228 19.4918 178.397 19.6492 178.589 19.8008C178.982 20.102 179.598 20.3333 180.327 20.4946C181.024 20.6423 181.769 20.687 182.451 20.6306C183.129 20.5762 183.757 20.4129 184.239 20.1351C183.945 20.0515 183.656 19.9699 183.366 19.8883C183.08 19.8047 182.797 19.7231 182.515 19.6414C181.963 19.4763 181.417 19.313 180.877 19.1498C182.019 19.3752 183.174 19.6123 184.402 19.8241C184.355 19.3985 184.107 18.9632 183.689 18.6037L183.691 18.6057Z" fill="white"/>
<path d="M182.125 14.9829C182.016 14.5885 181.697 14.2309 181.25 13.9608C180.792 13.6984 180.18 13.5429 179.5 13.5313C177.997 13.5255 176.61 14.2367 175.922 15.0587C175.974 15.4338 176.256 15.7175 176.676 15.9371C176.89 16.044 177.148 16.1276 177.445 16.1859C177.741 16.2442 178.061 16.2889 178.425 16.2986C179.795 16.3316 181.217 15.9857 182.024 15.2997C181.453 15.2434 180.887 15.1851 180.325 15.1306C179.781 15.0685 179.243 15.0063 178.711 14.946C179.266 14.9557 179.824 14.9655 180.388 14.9752C180.953 14.9849 181.54 14.981 182.125 14.981V14.9829Z" fill="white"/>
<path d="M179.246 10.707C179.089 10.3456 178.725 10.0677 178.255 9.89471C178.018 9.81115 177.761 9.74508 177.468 9.72953C177.176 9.71204 176.866 9.72759 176.543 9.78006C176.195 9.83836 175.859 9.93358 175.544 10.0618C175.227 10.192 174.928 10.3572 174.66 10.5399C174.124 10.9052 173.702 11.3464 173.449 11.7875C173.577 12.1159 173.861 12.3705 174.308 12.4929C174.419 12.524 174.539 12.5493 174.668 12.5648C174.796 12.5823 174.926 12.5979 175.07 12.6037C175.354 12.6154 175.668 12.5979 176.01 12.5473C176.662 12.4463 177.289 12.2675 177.851 12.0052C178.41 11.7448 178.89 11.4086 179.207 11.0218C178.119 11.0996 177.042 11.189 176.051 11.2278C176.564 11.154 177.085 11.0763 177.622 10.9869C178.16 10.8955 178.7 10.8022 179.244 10.709L179.246 10.707Z" fill="white"/>
<path d="M175.718 7.23729C175.609 7.08765 175.463 6.95939 175.286 6.85834C175.107 6.75729 174.905 6.67567 174.664 6.64069C174.192 6.5649 173.634 6.60765 173.051 6.80587C171.773 7.26061 170.811 8.26919 170.48 9.17478C170.562 9.32636 170.685 9.4449 170.842 9.53041C170.92 9.57316 171.007 9.60814 171.102 9.6334C171.198 9.66061 171.295 9.68587 171.404 9.69948C171.617 9.72863 171.862 9.7228 172.132 9.68587C172.402 9.64701 172.7 9.57316 173.003 9.47988C174.163 9.10871 175.273 8.35664 175.735 7.53461C175.228 7.67065 174.73 7.79696 174.249 7.90968C174.128 7.93688 174.01 7.96603 173.889 7.99324C173.769 8.02239 173.648 8.05154 173.528 8.08263C173.289 8.14093 173.051 8.19535 172.82 8.24782C173.287 8.09624 173.774 7.92328 174.252 7.76004C174.732 7.5968 175.222 7.42385 175.718 7.24117V7.23729Z" fill="white"/>
<path d="M179.1 59.678C178.684 59.4118 178.218 59.1767 177.722 58.9784C177.473 58.8793 177.217 58.7899 176.954 58.7122C176.692 58.6345 176.426 58.5684 176.148 58.5023C175.637 58.3857 175.149 58.3177 174.692 58.2944C174.463 58.2808 174.245 58.2847 174.032 58.2905C173.816 58.2944 173.608 58.308 173.41 58.3333C173.015 58.3838 172.658 58.479 172.347 58.6189C172.028 58.7452 171.754 58.9124 171.533 59.1281C172.269 59.5265 173.05 59.8996 173.839 60.1814C174.238 60.3271 174.644 60.4612 175.058 60.5836C175.266 60.6439 175.474 60.7022 175.685 60.7566C175.897 60.811 176.103 60.8537 176.315 60.8965C175.893 60.8596 175.462 60.7896 175.04 60.7099C174.618 60.6303 174.203 60.537 173.795 60.432C173.388 60.331 172.978 60.1988 172.578 60.057C172.178 59.9151 171.785 59.7616 171.398 59.5964C171.622 60.3096 172.096 61.0384 172.79 61.6641C173.136 61.977 173.538 62.2646 173.989 62.5095C174.44 62.7543 174.943 62.9642 175.474 63.0944C176.039 63.2382 176.607 63.3062 177.155 63.3062C177.43 63.3101 177.695 63.2848 177.951 63.244C178.208 63.2032 178.457 63.1488 178.696 63.0789C179.659 62.8126 180.406 62.2588 180.825 61.6019C180.557 60.8712 179.93 60.2105 179.098 59.678H179.1Z" fill="white"/>
<path d="M185.737 54.3268C185.395 54.0858 184.991 53.8798 184.544 53.7127C183.652 53.3804 182.594 53.2016 181.528 53.2113C181.034 53.2152 180.55 53.2424 180.117 53.3143C179.679 53.3823 179.291 53.495 178.929 53.6233C178.566 53.7496 178.249 53.9109 177.985 54.1033C177.853 54.2005 177.732 54.3035 177.627 54.4162C177.522 54.5289 177.421 54.6377 177.34 54.7621C177.536 54.8184 177.732 54.8709 177.93 54.9214C178.129 54.97 178.323 55.0128 178.521 55.0536C178.916 55.1352 179.318 55.2032 179.724 55.2596C180.13 55.3159 180.542 55.3587 180.958 55.3898C181.366 55.4112 181.778 55.4209 182.194 55.415C181.784 55.4597 181.38 55.4967 180.97 55.5103C180.556 55.52 180.144 55.5161 179.736 55.5006C179.328 55.485 178.924 55.4559 178.525 55.4131C178.121 55.3665 177.713 55.2984 177.316 55.2227C177.68 55.8426 178.284 56.4256 179.071 56.8686C179.464 57.0902 179.905 57.2787 180.379 57.4147C180.847 57.5449 181.353 57.6265 181.885 57.646C182.167 57.6557 182.443 57.6499 182.715 57.6265C182.987 57.6032 183.253 57.5644 183.502 57.5022C184.003 57.3817 184.474 57.201 184.891 56.9775C185.315 56.7579 185.661 56.4722 185.945 56.1632C186.228 55.8542 186.44 55.518 186.567 55.1682C186.366 54.8554 186.077 54.5697 185.735 54.3287L185.737 54.3268Z" fill="white"/>
<path d="M185.739 47.2629C185.273 47.364 184.824 47.4883 184.43 47.6438C184.033 47.7973 183.683 47.98 183.376 48.1802C183.06 48.3745 182.793 48.5902 182.582 48.8253C182.477 48.9439 182.383 49.0663 182.308 49.1926C182.23 49.3189 182.17 49.4511 182.113 49.5813C182.51 49.6104 182.889 49.6104 183.279 49.6085C183.668 49.6027 184.06 49.5871 184.455 49.556C184.848 49.5249 185.25 49.4861 185.64 49.4258C186.029 49.3636 186.418 49.2898 186.808 49.2004C186.433 49.3267 186.056 49.4394 185.679 49.5385C185.293 49.6318 184.904 49.7115 184.515 49.7795C183.738 49.9136 182.976 50.0049 182.183 50.0205C183.112 51.031 184.966 51.7248 186.973 51.3575C187.24 51.3108 187.5 51.2487 187.751 51.1729C187.875 51.134 188.002 51.0932 188.118 51.0485C188.235 51.0019 188.349 50.9513 188.462 50.8969C188.909 50.6832 189.313 50.4208 189.661 50.1274C190.015 49.8378 190.285 49.5036 190.487 49.1576C190.689 48.8117 190.821 48.4542 190.87 48.1024C189.855 47.0822 187.745 46.8218 185.741 47.2629H185.739Z" fill="white"/>
<path d="M191.166 40.0956C190.729 40.1151 190.271 40.1831 189.808 40.2958C189.577 40.3522 189.346 40.4202 189.116 40.4979C188.887 40.5756 188.66 40.665 188.426 40.7622C187.999 40.9429 187.612 41.147 187.27 41.3685C187.099 41.4793 186.942 41.594 186.794 41.7125C186.644 41.8291 186.501 41.9476 186.372 42.0701C186.116 42.3149 185.908 42.5695 185.758 42.8338C185.682 42.9659 185.622 43.1 185.576 43.2341C185.523 43.3663 185.484 43.5004 185.461 43.6344C186.215 43.5314 186.934 43.3663 187.661 43.1583C188.024 43.0534 188.386 42.9387 188.747 42.8085C188.928 42.7444 189.11 42.6783 189.287 42.6064C189.462 42.5345 189.637 42.4587 189.81 42.381C189.647 42.4762 189.482 42.5676 189.316 42.655C189.145 42.7425 188.974 42.826 188.801 42.9057C188.458 43.067 188.11 43.2166 187.762 43.3565C187.412 43.4945 187.062 43.6228 186.709 43.7374C186.345 43.8482 185.98 43.9473 185.614 44.0348C186.155 44.4195 186.885 44.68 187.717 44.7577C188.133 44.7966 188.574 44.7888 189.027 44.7285C189.472 44.6644 189.927 44.5459 190.379 44.3671C190.859 44.1786 191.301 43.9357 191.691 43.6578C192.078 43.3779 192.397 43.0534 192.665 42.7152C193.209 42.0429 193.458 41.2772 193.413 40.599C192.838 40.2142 192.041 40.0587 191.165 40.0976L191.166 40.0956Z" fill="white"/>
<path d="M189.757 34.1029C189.388 34.3517 189.057 34.616 188.777 34.8861C188.637 35.0221 188.507 35.1582 188.391 35.2961C188.276 35.4341 188.169 35.574 188.068 35.712C187.87 35.9899 187.722 36.2678 187.629 36.5438C187.582 36.6817 187.549 36.8197 187.53 36.9538C187.506 37.0879 187.493 37.222 187.497 37.3522C188.185 37.1132 188.832 36.8255 189.479 36.4952C189.802 36.33 190.122 36.1531 190.439 35.9666C190.754 35.7781 191.053 35.5779 191.354 35.3661C191.076 35.6032 190.808 35.8325 190.511 36.0482C190.215 36.2639 189.916 36.4699 189.613 36.6642C189.31 36.8586 189.003 37.0432 188.692 37.2181C188.371 37.3891 188.047 37.5504 187.718 37.702C188.299 37.9624 189.036 38.0712 189.831 37.9896C190.229 37.9488 190.641 37.8594 191.057 37.7195C191.463 37.5757 191.869 37.3813 192.264 37.1287C193.958 36.0735 194.765 34.2876 194.423 33.0302C193.2 32.5191 191.311 33.0263 189.759 34.1029H189.757Z" fill="white"/>
<path d="M189.64 27.5635C189.35 27.8628 189.076 28.1699 188.864 28.473C188.647 28.7781 188.476 29.0813 188.351 29.3767C188.074 29.9674 188 30.5291 188.114 31.0168C188.707 30.667 189.267 30.2784 189.819 29.8528C190.091 29.639 190.369 29.4155 190.623 29.1843C190.88 28.9511 191.128 28.7101 191.373 28.4575C191.158 28.7295 190.934 28.9919 190.707 29.2484C190.472 29.503 190.223 29.7498 189.974 29.9869C189.471 30.461 188.956 30.9002 188.384 31.3025C189.564 31.5785 191.257 31.1684 192.549 29.9363C193.251 29.2873 193.696 28.5158 193.923 27.7618C194.043 27.3848 194.074 27.0155 194.061 26.6696C194.045 26.3237 193.972 26.0031 193.837 25.7252C193.212 25.5969 192.485 25.7349 191.75 26.0652C191.014 26.3976 190.275 26.9184 189.64 27.5655V27.5635Z" fill="white"/>
<path d="M188.489 21.3902C188.271 21.7206 188.071 22.0568 187.922 22.3813C187.772 22.7058 187.663 23.0207 187.597 23.3199C187.451 23.9224 187.465 24.4665 187.671 24.9018C188.637 24.037 189.544 23.0362 190.273 21.9227C189.962 22.5076 189.626 23.0673 189.229 23.6036C189.035 23.8718 188.835 24.1322 188.627 24.3849C188.421 24.6375 188.207 24.8824 187.974 25.1214C188.555 25.1447 189.218 24.9854 189.869 24.6453C190.516 24.3071 191.132 23.7883 191.639 23.0964C191.773 22.9138 191.894 22.7272 192.001 22.5368C192.106 22.3463 192.189 22.1559 192.265 21.9635C192.413 21.5787 192.506 21.192 192.547 20.8189C192.57 20.6323 192.572 20.4516 192.558 20.2767C192.547 20.1018 192.521 19.9327 192.484 19.7734C192.411 19.4527 192.284 19.1651 192.111 18.93C191.499 18.9202 190.842 19.1748 190.209 19.614C189.575 20.0532 188.971 20.6731 188.487 21.3902H188.489Z" fill="white"/>
<path d="M185.814 17.7156C185.781 18.3064 185.89 18.8136 186.158 19.1867C186.912 18.2072 187.591 17.1112 188.082 15.9452C187.987 16.2464 187.884 16.5418 187.771 16.8333C187.662 17.1229 187.526 17.4163 187.392 17.7C187.256 17.9838 187.112 18.2636 186.963 18.5357C186.811 18.8097 186.658 19.074 186.481 19.3402C187.029 19.2605 187.624 18.9943 188.174 18.5629C188.72 18.1334 189.209 17.5407 189.565 16.8061C189.952 16.0268 190.072 15.232 190.025 14.5208C190.006 14.1632 189.915 13.8406 189.79 13.553C189.666 13.2673 189.499 13.0205 189.295 12.8281C188.156 13.0127 186.978 14.2429 186.318 15.7509C186.007 16.4544 185.828 17.1306 185.812 17.7136L185.814 17.7156Z" fill="white"/>
<path d="M183.729 14.0396C184.007 13.513 184.244 12.9727 184.457 12.4092C184.564 12.1274 184.661 11.8417 184.753 11.5522C184.84 11.2646 184.914 10.975 184.982 10.6796C184.943 10.9769 184.902 11.2684 184.842 11.5619C184.78 11.8573 184.71 12.1488 184.632 12.4364C184.475 13.0135 184.296 13.5693 184.057 14.1271C185.054 13.7928 186.111 12.7182 186.513 11.2335C186.62 10.8409 186.684 10.4445 186.688 10.0733C186.688 9.70212 186.646 9.34649 186.56 9.02196C186.401 8.36511 186.039 7.85402 185.596 7.56641C184.556 7.93369 183.668 9.27459 183.301 10.7982C183.118 11.5152 183.083 12.1663 183.157 12.722C183.221 13.2837 183.422 13.7345 183.729 14.0416V14.0396Z" fill="white"/>
<path d="M179.699 8.54794C179.856 9.05515 180.122 9.43604 180.449 9.6809C180.534 9.41078 180.616 9.13677 180.688 8.86082C180.754 8.58875 180.814 8.31474 180.865 8.0349C180.968 7.47911 181.042 6.90778 181.077 6.33255C181.112 7.47717 181.028 8.59264 180.771 9.70422C181.211 9.46325 181.628 9.05126 181.957 8.5149C182.283 7.98049 182.53 7.31199 182.59 6.5949C182.746 5.05773 182.077 3.71101 181.143 3.33789C180.686 3.59635 180.305 4.07441 180.029 4.67101C179.889 4.97028 179.778 5.29482 179.693 5.64267C179.605 5.99247 179.545 6.35976 179.518 6.73288C179.495 7.07879 179.501 7.40527 179.534 7.70648C179.57 8.00575 179.615 8.29725 179.697 8.54794H179.699Z" fill="white"/>
<path d="M175.838 5.08179C175.959 5.2975 176.085 5.49961 176.233 5.65701C176.381 5.81637 176.544 5.9388 176.721 6.01847C176.791 5.49183 176.831 4.95742 176.841 4.41523C176.853 3.87304 176.816 3.3464 176.758 2.80422C176.814 3.06656 176.863 3.32891 176.903 3.58932C176.923 3.71952 176.942 3.85167 176.96 3.98187C176.973 4.11596 176.985 4.25005 176.997 4.38414C177.037 4.92049 177.047 5.45491 177.028 5.98349C177.77 5.38689 178.31 4.1762 178.213 2.79256C178.192 2.42332 178.114 2.08519 178.007 1.77231C177.898 1.45944 177.756 1.17377 177.591 0.925022C177.508 0.80065 177.42 0.68405 177.323 0.582997C177.226 0.483888 177.123 0.394494 177.018 0.316761C176.806 0.161295 176.581 0.0524697 176.351 0C175.59 0.623807 175.23 2.02689 175.382 3.41636C175.444 4.07321 175.603 4.64454 175.838 5.08179Z" fill="white"/>
<path d="M171.923 58.1695C172.078 58.0821 172.222 57.9791 172.374 57.8839L173.269 57.3048C173.565 57.1085 173.849 56.8908 174.138 56.6849C174.424 56.475 174.719 56.2748 174.991 56.0455L175.821 55.377C175.889 55.3206 175.961 55.2662 176.027 55.2079L176.225 55.0311L176.622 54.6755L177.018 54.3198C177.15 54.2032 177.282 54.0827 177.407 53.9564L178.163 53.2063C178.419 52.9614 178.652 52.6933 178.891 52.4309C179.129 52.1666 179.371 51.9082 179.603 51.64L180.275 50.8141L180.611 50.4021L180.926 49.9726L181.554 49.1137C181.756 48.8222 181.944 48.5209 182.139 48.2256C182.539 47.6406 182.881 47.0188 183.239 46.4066C183.423 46.1035 183.575 45.7828 183.738 45.4699C183.897 45.1532 184.063 44.8403 184.218 44.5235L184.649 43.5538L184.865 43.068C184.939 42.9067 184.995 42.7396 185.061 42.5744C185.312 41.9136 185.578 41.2568 185.782 40.5786L185.948 40.0753L186.029 39.8226L186.099 39.5661L186.379 38.5439C186.715 37.1719 187.007 35.7844 187.16 34.3794L187.228 33.8547L187.271 33.3261C187.298 32.9744 187.331 32.6226 187.353 32.2709C187.374 31.5655 187.415 30.86 187.391 30.1546C187.397 29.4492 187.343 28.7437 187.304 28.0403C187.277 27.6885 187.234 27.3387 187.199 26.987L187.143 26.4603L187.063 25.9376C186.873 24.5403 186.558 23.1625 186.177 21.8061C186.076 21.4679 185.981 21.1298 185.874 20.7936L185.528 19.7947C185.419 19.4585 185.277 19.136 185.151 18.8095C185.021 18.483 184.896 18.1526 184.745 17.8359C183.614 15.2571 182.125 12.8396 180.333 10.6747L179.649 9.87213C179.414 9.61172 179.169 9.35909 178.93 9.10257C178.808 8.97626 178.693 8.84411 178.567 8.72168L178.188 8.35634L177.809 7.99099L177.62 7.80832L177.422 7.63536L176.631 6.9416C176.363 6.71423 176.083 6.50241 175.811 6.28281C175.673 6.17398 175.537 6.06321 175.399 5.95633L174.972 5.64929L174.544 5.34224C174.4 5.24119 174.261 5.1343 174.111 5.04297C174.259 5.13625 174.397 5.24507 174.538 5.34807L174.962 5.66095L175.386 5.97382C175.524 6.08265 175.658 6.19536 175.794 6.30613C176.064 6.52961 176.34 6.74532 176.604 6.97658L177.383 7.68006L177.578 7.8569L177.764 8.04152L178.137 8.41269L178.509 8.78387C178.633 8.9063 178.746 9.04039 178.866 9.16865C179.101 9.42905 179.34 9.68363 179.572 9.94597L180.24 10.7544C181.993 12.9367 183.437 15.362 184.523 17.935C184.669 18.2517 184.787 18.5821 184.912 18.9066C185.032 19.2331 185.17 19.5557 185.271 19.89L185.6 20.8849C185.699 21.2192 185.79 21.5573 185.885 21.8916C186.245 23.2403 186.536 24.6064 186.704 25.992L186.773 26.5109L186.822 27.0317C186.851 27.3795 186.89 27.7254 186.911 28.0733C186.941 28.769 186.983 29.4647 186.97 30.1624C186.983 30.86 186.931 31.5538 186.902 32.2495C186.876 32.5974 186.838 32.9433 186.807 33.2892L186.756 33.808L186.682 34.325C186.511 35.7067 186.204 37.067 185.856 38.4118L185.567 39.4126L185.495 39.6633L185.411 39.9101L185.242 40.4037C185.032 41.0664 184.76 41.7077 184.506 42.3528C184.44 42.5122 184.383 42.6774 184.307 42.8348L184.09 43.307L183.653 44.2534C183.495 44.5624 183.33 44.8675 183.169 45.1745C183.003 45.4796 182.852 45.7925 182.667 46.086C182.31 46.6806 181.966 47.285 181.565 47.8505C181.369 48.1362 181.183 48.4296 180.98 48.7094L180.355 49.5412L180.042 49.9571L179.708 50.3554L179.039 51.1522C178.81 51.4107 178.569 51.6614 178.334 51.9159C178.097 52.1686 177.867 52.427 177.613 52.6622L176.866 53.3831C176.744 53.5056 176.614 53.6202 176.484 53.7329L176.091 54.073L175.701 54.4131L175.504 54.5841C175.438 54.6385 175.368 54.691 175.3 54.7454L174.484 55.3848C174.216 55.6044 173.926 55.7948 173.644 55.995C173.359 56.1912 173.083 56.3992 172.791 56.5857L171.913 57.1376C171.765 57.227 171.623 57.3261 171.472 57.4097L171.019 57.6623C170.716 57.8295 170.417 58.0024 170.112 58.1637L169.181 58.6204C169.025 58.6962 168.872 58.7739 168.714 58.8478L168.238 59.0518L167.533 59.353C167.506 59.3627 167.478 59.3764 167.451 59.388L167.288 59.458V59.4638C164.876 60.5929 162.931 62.5304 161.802 64.9517L161.648 65.2802L162.519 65.6863L162.673 65.3579C163.741 63.0687 165.607 61.2458 167.919 60.2295L168.625 59.9147L169.113 59.697C169.272 59.6193 169.429 59.5357 169.589 59.456L170.541 58.9721C170.852 58.8011 171.159 58.6185 171.468 58.4416L171.93 58.1754L171.923 58.1695Z" fill="white"/>
</svg>
