<svg xmlns="http://www.w3.org/2000/svg" width="210" height="66" viewBox="0 0 210 66" fill="none"><path d="M43.9257 27.0566V14.3732H49.2714C50.1113 14.3732 50.8264 14.5207 51.4166 14.8158C52.0181 15.0996 52.4778 15.5082 52.7956 16.0416C53.1247 16.5637 53.2893 17.1993 53.2893 17.9484C53.2893 18.5272 53.1304 19.072 52.8126 19.5828C52.5062 20.0822 52.0124 20.4964 51.3314 20.8256V19.753C51.9557 19.9914 52.4494 20.2865 52.8126 20.6383C53.1758 20.9901 53.4312 21.3817 53.5787 21.813C53.7263 22.2443 53.8 22.6983 53.8 23.175C53.8 24.3894 53.3971 25.3428 52.5913 26.0352C51.7968 26.7161 50.6902 27.0566 49.2714 27.0566H43.9257ZM46.241 25.0137H49.5098C50.1113 25.0137 50.588 24.8491 50.9399 24.5199C51.3031 24.1795 51.4847 23.7311 51.4847 23.175C51.4847 22.6188 51.3031 22.1705 50.9399 21.83C50.588 21.4895 50.1113 21.3193 49.5098 21.3193H46.241V25.0137ZM46.241 19.2933H49.3906C49.8673 19.2933 50.2475 19.1571 50.5313 18.8847C50.815 18.601 50.9569 18.2378 50.9569 17.7952C50.9569 17.3525 50.815 17.0007 50.5313 16.7396C50.2475 16.4786 49.8673 16.3481 49.3906 16.3481H46.241V19.2933ZM59.9018 27.2609C58.9484 27.2609 58.1142 27.0453 57.3992 26.614C56.6841 26.1827 56.128 25.5982 55.7308 24.8604C55.3335 24.1227 55.1349 23.3055 55.1349 22.4089C55.1349 21.4782 55.3335 20.6553 55.7308 19.9403C56.1393 19.2139 56.6898 18.6407 57.3822 18.2208C58.0858 17.8008 58.869 17.5909 59.7316 17.5909C60.458 17.5909 61.0936 17.71 61.6384 17.9484C62.1945 18.1867 62.6655 18.5159 63.0514 18.9358C63.4373 19.3558 63.7324 19.8381 63.9367 20.3829C64.141 20.9164 64.2431 21.4952 64.2431 22.1195C64.2431 22.2784 64.2318 22.4429 64.2091 22.6132C64.1977 22.7834 64.1694 22.931 64.124 23.0558H56.9736V21.3533H62.8641L61.8086 22.1535C61.9107 21.6314 61.8824 21.1661 61.7235 20.7575C61.5759 20.3489 61.3262 20.0254 60.9744 19.7871C60.6339 19.5487 60.2196 19.4295 59.7316 19.4295C59.2662 19.4295 58.852 19.5487 58.4888 19.7871C58.1256 20.0141 57.8475 20.3546 57.6546 20.8085C57.473 21.2512 57.4049 21.7903 57.4503 22.4259C57.4049 22.9934 57.4786 23.4985 57.6716 23.9411C57.8759 24.3724 58.171 24.7072 58.5569 24.9456C58.9541 25.1839 59.4081 25.3031 59.9188 25.3031C60.4296 25.3031 60.8609 25.1953 61.2127 24.9796C61.5759 24.764 61.8597 24.4745 62.064 24.1114L63.8686 24.9966C63.687 25.4393 63.4033 25.8309 63.0174 26.1714C62.6315 26.5118 62.1718 26.7786 61.6384 26.9715C61.1163 27.1645 60.5374 27.2609 59.9018 27.2609ZM69.4579 27.2609C68.4705 27.2609 67.6079 27.0283 66.8701 26.5629C66.1438 26.0862 65.6444 25.445 65.372 24.6391L67.0404 23.839C67.2787 24.3611 67.6079 24.7696 68.0278 25.0647C68.4591 25.3598 68.9358 25.5074 69.4579 25.5074C69.8665 25.5074 70.19 25.4166 70.4283 25.235C70.6667 25.0534 70.7858 24.815 70.7858 24.5199C70.7858 24.3384 70.7348 24.1908 70.6326 24.0773C70.5418 23.9525 70.4113 23.8503 70.2411 23.7709C70.0822 23.6801 69.9062 23.6063 69.7133 23.5495L68.1981 23.1239C67.4149 22.8969 66.8191 22.5507 66.4105 22.0854C66.0132 21.6201 65.8146 21.0696 65.8146 20.434C65.8146 19.8665 65.9565 19.3728 66.2402 18.9528C66.5353 18.5216 66.9382 18.1867 67.449 17.9484C67.9711 17.71 68.5669 17.5909 69.2366 17.5909C70.1105 17.5909 70.8823 17.8008 71.552 18.2208C72.2216 18.6407 72.6983 19.2309 72.982 19.9914L71.2796 20.7915C71.1207 20.3716 70.8539 20.0368 70.4794 19.7871C70.1049 19.5374 69.6849 19.4125 69.2196 19.4125C68.845 19.4125 68.5499 19.4976 68.3343 19.6679C68.1186 19.8381 68.0108 20.0595 68.0108 20.3319C68.0108 20.5021 68.0562 20.6496 68.147 20.7745C68.2378 20.8993 68.3627 21.0015 68.5215 21.0809C68.6918 21.1604 68.8847 21.2342 69.1004 21.3023L70.5815 21.7449C71.342 21.9719 71.9265 22.3124 72.3351 22.7664C72.755 23.2204 72.965 23.7765 72.965 24.4348C72.965 24.991 72.8175 25.4847 72.5224 25.916C72.2273 26.3359 71.8187 26.6651 71.2966 26.9034C70.7745 27.1418 70.1616 27.2609 69.4579 27.2609ZM78.9011 27.1588C77.8569 27.1588 77.0454 26.875 76.4665 26.3076C75.899 25.7287 75.6153 24.9172 75.6153 23.873V19.7871H74.015V17.7952H74.1852C74.6392 17.7952 74.9911 17.676 75.2408 17.4376C75.4904 17.1993 75.6153 16.8531 75.6153 16.3991V15.6841H77.8455V17.7952H79.9736V19.7871H77.8455V23.7538C77.8455 24.0603 77.8966 24.3213 77.9988 24.537C78.1123 24.7526 78.2825 24.9172 78.5095 25.0307C78.7479 25.1442 79.0486 25.2009 79.4118 25.2009C79.4913 25.2009 79.5821 25.1953 79.6842 25.1839C79.7977 25.1726 79.9055 25.1612 80.0077 25.1499V27.0566C79.8488 27.0793 79.6672 27.102 79.4629 27.1247C79.2586 27.1474 79.0713 27.1588 78.9011 27.1588ZM87.1721 27.0566V16.4162H83.8863V14.3732H92.7392V16.4162H89.5045V27.0566H87.1721ZM93.9648 27.0566V14.1689H96.1951V19.6168L95.8886 19.2933C96.1043 18.7372 96.4561 18.3173 96.9442 18.0335C97.4435 17.7384 98.0224 17.5909 98.6807 17.5909C99.3617 17.5909 99.9632 17.7384 100.485 18.0335C101.019 18.3286 101.433 18.7429 101.728 19.2763C102.023 19.7984 102.171 20.4056 102.171 21.098V27.0566H99.9405V21.6257C99.9405 21.2171 99.8611 20.8653 99.7022 20.5702C99.5433 20.2751 99.3219 20.0481 99.0382 19.8892C98.7658 19.719 98.4423 19.6338 98.0678 19.6338C97.7046 19.6338 97.3811 19.719 97.0974 19.8892C96.8136 20.0481 96.5923 20.2751 96.4334 20.5702C96.2745 20.8653 96.1951 21.2171 96.1951 21.6257V27.0566H93.9648ZM108.449 27.2609C107.496 27.2609 106.661 27.0453 105.946 26.614C105.231 26.1827 104.675 25.5982 104.278 24.8604C103.881 24.1227 103.682 23.3055 103.682 22.4089C103.682 21.4782 103.881 20.6553 104.278 19.9403C104.687 19.2139 105.237 18.6407 105.929 18.2208C106.633 17.8008 107.416 17.5909 108.279 17.5909C109.005 17.5909 109.641 17.71 110.186 17.9484C110.742 18.1867 111.213 18.5159 111.599 18.9358C111.985 19.3558 112.28 19.8381 112.484 20.3829C112.688 20.9164 112.79 21.4952 112.79 22.1195C112.79 22.2784 112.779 22.4429 112.756 22.6132C112.745 22.7834 112.717 22.931 112.671 23.0558H105.521V21.3533H111.411L110.356 22.1535C110.458 21.6314 110.43 21.1661 110.271 20.7575C110.123 20.3489 109.873 20.0254 109.522 19.7871C109.181 19.5487 108.767 19.4295 108.279 19.4295C107.813 19.4295 107.399 19.5487 107.036 19.7871C106.673 20.0141 106.395 20.3546 106.202 20.8085C106.02 21.2512 105.952 21.7903 105.997 22.4259C105.952 22.9934 106.026 23.4985 106.219 23.9411C106.423 24.3724 106.718 24.7072 107.104 24.9456C107.501 25.1839 107.955 25.3031 108.466 25.3031C108.977 25.3031 109.408 25.1953 109.76 24.9796C110.123 24.764 110.407 24.4745 110.611 24.1114L112.416 24.9966C112.234 25.4393 111.95 25.8309 111.565 26.1714C111.179 26.5118 110.719 26.7786 110.186 26.9715C109.663 27.1645 109.085 27.2609 108.449 27.2609ZM114.481 27.0566V17.7952H116.575V19.9403L116.337 19.5828C116.507 18.9131 116.847 18.4137 117.358 18.0846C117.869 17.7554 118.47 17.5909 119.163 17.5909C119.923 17.5909 120.593 17.7895 121.172 18.1867C121.751 18.584 122.125 19.1061 122.295 19.753L121.665 19.8041C121.949 19.0663 122.375 18.5159 122.942 18.1527C123.51 17.7781 124.162 17.5909 124.9 17.5909C125.558 17.5909 126.143 17.7384 126.654 18.0335C127.176 18.3286 127.584 18.7429 127.88 19.2763C128.175 19.7984 128.322 20.4056 128.322 21.098V27.0566H126.092V21.6257C126.092 21.2171 126.018 20.8653 125.871 20.5702C125.723 20.2751 125.519 20.0481 125.258 19.8892C124.997 19.719 124.679 19.6338 124.304 19.6338C123.952 19.6338 123.64 19.719 123.368 19.8892C123.096 20.0481 122.886 20.2751 122.738 20.5702C122.59 20.8653 122.517 21.2171 122.517 21.6257V27.0566H120.286V21.6257C120.286 21.2171 120.213 20.8653 120.065 20.5702C119.918 20.2751 119.708 20.0481 119.435 19.8892C119.174 19.719 118.862 19.6338 118.499 19.6338C118.147 19.6338 117.835 19.719 117.562 19.8892C117.29 20.0481 117.08 20.2751 116.933 20.5702C116.785 20.8653 116.711 21.2171 116.711 21.6257V27.0566H114.481ZM134.601 27.2609C133.648 27.2609 132.814 27.0453 132.099 26.614C131.384 26.1827 130.828 25.5982 130.43 24.8604C130.033 24.1227 129.834 23.3055 129.834 22.4089C129.834 21.4782 130.033 20.6553 130.43 19.9403C130.839 19.2139 131.389 18.6407 132.082 18.2208C132.785 17.8008 133.569 17.5909 134.431 17.5909C135.158 17.5909 135.793 17.71 136.338 17.9484C136.894 18.1867 137.365 18.5159 137.751 18.9358C138.137 19.3558 138.432 19.8381 138.636 20.3829C138.841 20.9164 138.943 21.4952 138.943 22.1195C138.943 22.2784 138.931 22.4429 138.909 22.6132C138.897 22.7834 138.869 22.931 138.824 23.0558H131.673V21.3533H137.564L136.508 22.1535C136.61 21.6314 136.582 21.1661 136.423 20.7575C136.275 20.3489 136.026 20.0254 135.674 19.7871C135.333 19.5487 134.919 19.4295 134.431 19.4295C133.966 19.4295 133.552 19.5487 133.188 19.7871C132.825 20.0141 132.547 20.3546 132.354 20.8085C132.173 21.2512 132.104 21.7903 132.15 22.4259C132.104 22.9934 132.178 23.4985 132.371 23.9411C132.575 24.3724 132.871 24.7072 133.256 24.9456C133.654 25.1839 134.108 25.3031 134.618 25.3031C135.129 25.3031 135.56 25.1953 135.912 24.9796C136.275 24.764 136.559 24.4745 136.764 24.1114L138.568 24.9966C138.387 25.4393 138.103 25.8309 137.717 26.1714C137.331 26.5118 136.871 26.7786 136.338 26.9715C135.816 27.1645 135.237 27.2609 134.601 27.2609ZM144.732 27.0566V19.7871H143.097V17.7952H144.732V17.4887C144.732 16.785 144.874 16.1892 145.157 15.7011C145.453 15.2017 145.861 14.8215 146.383 14.5605C146.905 14.2994 147.524 14.1689 148.239 14.1689C148.375 14.1689 148.523 14.1802 148.682 14.2029C148.852 14.2143 148.994 14.2313 149.107 14.254V16.1778C148.994 16.1551 148.886 16.1438 148.784 16.1438C148.693 16.1324 148.608 16.1267 148.528 16.1267C148.029 16.1267 147.643 16.2402 147.371 16.4672C147.098 16.6829 146.962 17.0234 146.962 17.4887V17.7952H149.022V19.7871H146.962V27.0566H144.732ZM154.838 27.2609C153.93 27.2609 153.102 27.051 152.352 26.631C151.615 26.2111 151.025 25.6379 150.582 24.9115C150.151 24.1851 149.935 23.3566 149.935 22.4259C149.935 21.4952 150.151 20.6667 150.582 19.9403C151.025 19.2139 151.615 18.6407 152.352 18.2208C153.09 17.8008 153.919 17.5909 154.838 17.5909C155.746 17.5909 156.569 17.8008 157.307 18.2208C158.044 18.6407 158.629 19.2139 159.06 19.9403C159.503 20.6553 159.724 21.4839 159.724 22.4259C159.724 23.3566 159.503 24.1851 159.06 24.9115C158.618 25.6379 158.027 26.2111 157.29 26.631C156.552 27.051 155.735 27.2609 154.838 27.2609ZM154.838 25.218C155.338 25.218 155.774 25.0988 156.149 24.8604C156.535 24.6221 156.836 24.293 157.051 23.873C157.278 23.4417 157.392 22.9593 157.392 22.4259C157.392 21.8811 157.278 21.4044 157.051 20.9958C156.836 20.5759 156.535 20.2467 156.149 20.0084C155.774 19.7587 155.338 19.6338 154.838 19.6338C154.327 19.6338 153.879 19.7587 153.493 20.0084C153.107 20.2467 152.801 20.5759 152.574 20.9958C152.358 21.4044 152.25 21.8811 152.25 22.4259C152.25 22.9593 152.358 23.4417 152.574 23.873C152.801 24.293 153.107 24.6221 153.493 24.8604C153.879 25.0988 154.327 25.218 154.838 25.218ZM161.416 27.0566V17.7952H163.51V19.8552L163.339 19.5487C163.555 18.8564 163.89 18.374 164.344 18.1016C164.809 17.8292 165.365 17.693 166.012 17.693H166.557V19.6679H165.757C165.121 19.6679 164.611 19.8665 164.225 20.2638C163.839 20.6496 163.646 21.1944 163.646 21.8981V27.0566H161.416ZM42.2271 47.0566L38.8222 34.3732H41.3078L43.9807 45.1839H43.3337L46.1258 34.3732H48.5263L51.3013 45.1839H50.6544L53.3273 34.3732H55.8129L52.4079 47.0566H49.7521L46.943 36.5353H47.6921L44.883 47.0566H42.2271ZM61.0106 47.2609C60.1026 47.2609 59.2741 47.051 58.525 46.631C57.7873 46.2111 57.1971 45.6379 56.7544 44.9115C56.3231 44.1851 56.1075 43.3566 56.1075 42.4259C56.1075 41.4952 56.3231 40.6667 56.7544 39.9403C57.1971 39.2139 57.7873 38.6407 58.525 38.2208C59.2628 37.8008 60.0913 37.5909 61.0106 37.5909C61.9186 37.5909 62.7415 37.8008 63.4792 38.2208C64.217 38.6407 64.8015 39.2139 65.2328 39.9403C65.6754 40.6553 65.8967 41.4839 65.8967 42.4259C65.8967 43.3566 65.6754 44.1851 65.2328 44.9115C64.7901 45.6379 64.1999 46.2111 63.4622 46.631C62.7245 47.051 61.9073 47.2609 61.0106 47.2609ZM61.0106 45.218C61.51 45.218 61.947 45.0988 62.3215 44.8604C62.7074 44.6221 63.0082 44.293 63.2239 43.873C63.4508 43.4417 63.5643 42.9593 63.5643 42.4259C63.5643 41.8811 63.4508 41.4044 63.2239 40.9958C63.0082 40.5759 62.7074 40.2467 62.3215 40.0084C61.947 39.7587 61.51 39.6338 61.0106 39.6338C60.4999 39.6338 60.0516 39.7587 59.6657 40.0084C59.2798 40.2467 58.9733 40.5759 58.7463 40.9958C58.5307 41.4044 58.4229 41.8811 58.4229 42.4259C58.4229 42.9593 58.5307 43.4417 58.7463 43.873C58.9733 44.293 59.2798 44.6221 59.6657 44.8604C60.0516 45.0988 60.4999 45.218 61.0106 45.218ZM72.1166 47.2609C71.2086 47.2609 70.3801 47.051 69.631 46.631C68.8933 46.2111 68.3031 45.6379 67.8604 44.9115C67.4291 44.1851 67.2135 43.3566 67.2135 42.4259C67.2135 41.4952 67.4291 40.6667 67.8604 39.9403C68.3031 39.2139 68.8933 38.6407 69.631 38.2208C70.3688 37.8008 71.1973 37.5909 72.1166 37.5909C73.0246 37.5909 73.8475 37.8008 74.5852 38.2208C75.323 38.6407 75.9075 39.2139 76.3388 39.9403C76.7814 40.6553 77.0027 41.4839 77.0027 42.4259C77.0027 43.3566 76.7814 44.1851 76.3388 44.9115C75.8961 45.6379 75.3059 46.2111 74.5682 46.631C73.8305 47.051 73.0133 47.2609 72.1166 47.2609ZM72.1166 45.218C72.616 45.218 73.053 45.0988 73.4275 44.8604C73.8134 44.6221 74.1142 44.293 74.3299 43.873C74.5569 43.4417 74.6704 42.9593 74.6704 42.4259C74.6704 41.8811 74.5569 41.4044 74.3299 40.9958C74.1142 40.5759 73.8134 40.2467 73.4275 40.0084C73.053 39.7587 72.616 39.6338 72.1166 39.6338C71.6059 39.6338 71.1576 39.7587 70.7717 40.0084C70.3858 40.2467 70.0793 40.5759 69.8523 40.9958C69.6367 41.4044 69.5289 41.8811 69.5289 42.4259C69.5289 42.9593 69.6367 43.4417 69.8523 43.873C70.0793 44.293 70.3858 44.6221 70.7717 44.8604C71.1576 45.0988 71.6059 45.218 72.1166 45.218ZM84.84 47.2609C83.932 47.2609 83.0921 47.0964 82.3203 46.7672C81.5599 46.4381 80.8902 45.9784 80.3114 45.3882C79.7439 44.798 79.3013 44.1057 78.9835 43.3112C78.6657 42.5167 78.5068 41.6484 78.5068 40.7064C78.5068 39.7644 78.66 38.8961 78.9664 38.1016C79.2842 37.2958 79.7269 36.6034 80.2944 36.0246C80.8732 35.4344 81.5485 34.9804 82.3203 34.6626C83.0921 34.3335 83.932 34.1689 84.84 34.1689C85.748 34.1689 86.5595 34.3221 87.2745 34.6286C88.0009 34.935 88.6138 35.3436 89.1132 35.8543C89.6126 36.3537 89.9701 36.9042 90.1858 37.5057L88.1088 38.4762C87.8704 37.8406 87.4675 37.3185 86.9 36.9099C86.3325 36.4899 85.6458 36.28 84.84 36.28C84.0455 36.28 83.3418 36.4672 82.7289 36.8418C82.1274 37.2163 81.6564 37.7327 81.3159 38.391C80.9867 39.0493 80.8221 39.8211 80.8221 40.7064C80.8221 41.5917 80.9867 42.3692 81.3159 43.0388C81.6564 43.6971 82.1274 44.2135 82.7289 44.588C83.3418 44.9626 84.0455 45.1499 84.84 45.1499C85.6458 45.1499 86.3325 44.9456 86.9 44.537C87.4675 44.117 87.8704 43.5893 88.1088 42.9537L90.1858 43.9241C89.9701 44.5256 89.6126 45.0818 89.1132 45.5925C88.6138 46.0919 88.0009 46.4948 87.2745 46.8013C86.5595 47.1077 85.748 47.2609 84.84 47.2609ZM96.2406 47.2609C95.3326 47.2609 94.5041 47.051 93.755 46.631C93.0173 46.2111 92.4271 45.6379 91.9844 44.9115C91.5531 44.1851 91.3375 43.3566 91.3375 42.4259C91.3375 41.4952 91.5531 40.6667 91.9844 39.9403C92.4271 39.2139 93.0173 38.6407 93.755 38.2208C94.4927 37.8008 95.3213 37.5909 96.2406 37.5909C97.1486 37.5909 97.9715 37.8008 98.7092 38.2208C99.447 38.6407 100.031 39.2139 100.463 39.9403C100.905 40.6553 101.127 41.4839 101.127 42.4259C101.127 43.3566 100.905 44.1851 100.463 44.9115C100.02 45.6379 99.4299 46.2111 98.6922 46.631C97.9544 47.051 97.1373 47.2609 96.2406 47.2609ZM96.2406 45.218C96.74 45.218 97.177 45.0988 97.5515 44.8604C97.9374 44.6221 98.2382 44.293 98.4538 43.873C98.6808 43.4417 98.7943 42.9593 98.7943 42.4259C98.7943 41.8811 98.6808 41.4044 98.4538 40.9958C98.2382 40.5759 97.9374 40.2467 97.5515 40.0084C97.177 39.7587 96.74 39.6338 96.2406 39.6338C95.7299 39.6338 95.2816 39.7587 94.8957 40.0084C94.5098 40.2467 94.2033 40.5759 93.9763 40.9958C93.7607 41.4044 93.6529 41.8811 93.6529 42.4259C93.6529 42.9593 93.7607 43.4417 93.9763 43.873C94.2033 44.293 94.5098 44.6221 94.8957 44.8604C95.2816 45.0988 95.7299 45.218 96.2406 45.218ZM102.818 47.0566V37.7952H104.912V39.9403L104.674 39.5828C104.844 38.9131 105.184 38.4137 105.695 38.0846C106.206 37.7554 106.808 37.5909 107.5 37.5909C108.26 37.5909 108.93 37.7895 109.509 38.1867C110.088 38.584 110.462 39.1061 110.632 39.753L110.002 39.8041C110.286 39.0663 110.712 38.5159 111.279 38.1527C111.847 37.7781 112.499 37.5909 113.237 37.5909C113.895 37.5909 114.48 37.7384 114.991 38.0335C115.513 38.3286 115.921 38.7429 116.217 39.2763C116.512 39.7984 116.659 40.4056 116.659 41.098V47.0566H114.429V41.6257C114.429 41.2171 114.355 40.8653 114.208 40.5702C114.06 40.2751 113.856 40.0481 113.595 39.8892C113.334 39.719 113.016 39.6338 112.641 39.6338C112.289 39.6338 111.977 39.719 111.705 39.8892C111.433 40.0481 111.223 40.2751 111.075 40.5702C110.928 40.8653 110.854 41.2171 110.854 41.6257V47.0566H108.623V41.6257C108.623 41.2171 108.55 40.8653 108.402 40.5702C108.255 40.2751 108.045 40.0481 107.772 39.8892C107.511 39.719 107.199 39.6338 106.836 39.6338C106.484 39.6338 106.172 39.719 105.9 39.8892C105.627 40.0481 105.417 40.2751 105.27 40.5702C105.122 40.8653 105.048 41.2171 105.048 41.6257V47.0566H102.818ZM118.546 47.0566V37.7952H120.64V39.9403L120.402 39.5828C120.572 38.9131 120.912 38.4137 121.423 38.0846C121.934 37.7554 122.535 37.5909 123.228 37.5909C123.988 37.5909 124.658 37.7895 125.237 38.1867C125.816 38.584 126.19 39.1061 126.36 39.753L125.73 39.8041C126.014 39.0663 126.44 38.5159 127.007 38.1527C127.575 37.7781 128.227 37.5909 128.965 37.5909C129.623 37.5909 130.208 37.7384 130.719 38.0335C131.241 38.3286 131.649 38.7429 131.945 39.2763C132.24 39.7984 132.387 40.4056 132.387 41.098V47.0566H130.157V41.6257C130.157 41.2171 130.083 40.8653 129.936 40.5702C129.788 40.2751 129.584 40.0481 129.323 39.8892C129.062 39.719 128.744 39.6338 128.369 39.6338C128.017 39.6338 127.705 39.719 127.433 39.8892C127.161 40.0481 126.951 40.2751 126.803 40.5702C126.655 40.8653 126.582 41.2171 126.582 41.6257V47.0566H124.351V41.6257C124.351 41.2171 124.278 40.8653 124.13 40.5702C123.983 40.2751 123.773 40.0481 123.5 39.8892C123.239 39.719 122.927 39.6338 122.564 39.6338C122.212 39.6338 121.9 39.719 121.627 39.8892C121.355 40.0481 121.145 40.2751 120.998 40.5702C120.85 40.8653 120.776 41.2171 120.776 41.6257V47.0566H118.546ZM138.666 47.2609C137.713 47.2609 136.879 47.0453 136.164 46.614C135.449 46.1827 134.893 45.5982 134.495 44.8604C134.098 44.1227 133.899 43.3055 133.899 42.4089C133.899 41.4782 134.098 40.6553 134.495 39.9403C134.904 39.2139 135.454 38.6407 136.147 38.2208C136.85 37.8008 137.634 37.5909 138.496 37.5909C139.223 37.5909 139.858 37.71 140.403 37.9484C140.959 38.1867 141.43 38.5159 141.816 38.9358C142.202 39.3558 142.497 39.8381 142.701 40.3829C142.906 40.9164 143.008 41.4952 143.008 42.1195C143.008 42.2784 142.996 42.4429 142.974 42.6132C142.962 42.7834 142.934 42.931 142.889 43.0558H135.738V41.3533H141.629L140.573 42.1535C140.675 41.6314 140.647 41.1661 140.488 40.7575C140.34 40.3489 140.091 40.0254 139.739 39.7871C139.398 39.5487 138.984 39.4295 138.496 39.4295C138.031 39.4295 137.617 39.5487 137.253 39.7871C136.89 40.0141 136.612 40.3546 136.419 40.8085C136.238 41.2512 136.169 41.7903 136.215 42.4259C136.169 42.9934 136.243 43.4985 136.436 43.9411C136.64 44.3724 136.936 44.7072 137.321 44.9456C137.719 45.1839 138.173 45.3031 138.683 45.3031C139.194 45.3031 139.625 45.1953 139.977 44.9796C140.34 44.764 140.624 44.4745 140.829 44.1114L142.633 44.9966C142.452 45.4393 142.168 45.8309 141.782 46.1714C141.396 46.5118 140.936 46.7786 140.403 46.9715C139.881 47.1645 139.302 47.2609 138.666 47.2609ZM144.698 47.0566V37.7952H146.792V39.8552L146.622 39.5487C146.838 38.8564 147.173 38.374 147.627 38.1016C148.092 37.8292 148.648 37.693 149.295 37.693H149.84V39.6679H149.04C148.404 39.6679 147.893 39.8665 147.507 40.2638C147.122 40.6496 146.929 41.1944 146.929 41.8981V47.0566H144.698ZM155.526 47.2609C154.607 47.2609 153.779 47.051 153.041 46.631C152.314 46.1997 151.741 45.6209 151.321 44.8945C150.901 44.1568 150.691 43.3282 150.691 42.4089C150.691 41.4895 150.901 40.6667 151.321 39.9403C151.741 39.2139 152.314 38.6407 153.041 38.2208C153.779 37.8008 154.607 37.5909 155.526 37.5909C156.185 37.5909 156.798 37.71 157.365 37.9484C157.933 38.1754 158.421 38.4932 158.829 38.9018C159.249 39.299 159.55 39.7757 159.732 40.3319L157.774 41.1831C157.604 40.7177 157.314 40.3432 156.905 40.0595C156.508 39.7757 156.049 39.6338 155.526 39.6338C155.038 39.6338 154.601 39.753 154.216 39.9914C153.841 40.2297 153.546 40.5588 153.33 40.9788C153.115 41.3987 153.007 41.8811 153.007 42.4259C153.007 42.9707 153.115 43.4531 153.33 43.873C153.546 44.293 153.841 44.6221 154.216 44.8604C154.601 45.0988 155.038 45.218 155.526 45.218C156.06 45.218 156.525 45.0761 156.923 44.7923C157.32 44.5086 157.604 44.1284 157.774 43.6517L159.732 44.537C159.55 45.0591 159.255 45.5301 158.846 45.95C158.438 46.3586 157.95 46.6821 157.382 46.9204C156.815 47.1474 156.196 47.2609 155.526 47.2609ZM165.816 47.2609C164.863 47.2609 164.029 47.0453 163.314 46.614C162.599 46.1827 162.042 45.5982 161.645 44.8604C161.248 44.1227 161.049 43.3055 161.049 42.4089C161.049 41.4782 161.248 40.6553 161.645 39.9403C162.054 39.2139 162.604 38.6407 163.297 38.2208C164 37.8008 164.783 37.5909 165.646 37.5909C166.372 37.5909 167.008 37.71 167.553 37.9484C168.109 38.1867 168.58 38.5159 168.966 38.9358C169.352 39.3558 169.647 39.8381 169.851 40.3829C170.055 40.9164 170.158 41.4952 170.158 42.1195C170.158 42.2784 170.146 42.4429 170.124 42.6132C170.112 42.7834 170.084 42.931 170.038 43.0558H162.888V41.3533H168.779L167.723 42.1535C167.825 41.6314 167.797 41.1661 167.638 40.7575C167.49 40.3489 167.241 40.0254 166.889 39.7871C166.548 39.5487 166.134 39.4295 165.646 39.4295C165.181 39.4295 164.766 39.5487 164.403 39.7871C164.04 40.0141 163.762 40.3546 163.569 40.8085C163.387 41.2512 163.319 41.7903 163.365 42.4259C163.319 42.9934 163.393 43.4985 163.586 43.9411C163.79 44.3724 164.085 44.7072 164.471 44.9456C164.869 45.1839 165.323 45.3031 165.833 45.3031C166.344 45.3031 166.775 45.1953 167.127 44.9796C167.49 44.764 167.774 44.4745 167.978 44.1114L169.783 44.9966C169.601 45.4393 169.318 45.8309 168.932 46.1714C168.546 46.5118 168.086 46.7786 167.553 46.9715C167.031 47.1645 166.452 47.2609 165.816 47.2609Z" fill="white"></path><path d="M21.8507 4.21803C22.0489 4.10143 22.253 3.99066 22.457 3.88377C22.6611 3.77689 22.8671 3.67584 23.075 3.58062C23.2849 3.48734 23.5025 3.41155 23.7182 3.33576C23.5142 3.43875 23.3101 3.53786 23.1158 3.65641C22.9234 3.77689 22.733 3.90126 22.5445 4.03147C22.3579 4.15973 22.1753 4.29382 21.9945 4.42985C21.8216 4.5756 21.6525 4.72718 21.4854 4.8807C22.2588 5.31017 23.3179 5.30823 24.2449 4.81074C24.7521 4.54839 25.1427 4.15195 25.4264 3.73414C25.7043 3.30661 25.8539 2.813 25.8364 2.33106C25.5061 1.99098 25.0339 1.7811 24.4936 1.72863C23.9495 1.6645 23.3568 1.79859 22.7913 2.09009C22.6591 2.16005 22.5309 2.23389 22.4143 2.3194C22.2977 2.40685 22.1908 2.50013 22.0897 2.59729C21.8896 2.79163 21.7205 3.00345 21.5884 3.22499C21.5223 3.33576 21.4659 3.44653 21.4193 3.56118C21.3746 3.67778 21.3396 3.79632 21.3144 3.91487C21.2638 4.15001 21.2522 4.38515 21.2813 4.61058C21.4698 4.47649 21.6603 4.34434 21.8527 4.21997L21.8507 4.21803Z" fill="white"></path><path d="M24.8286 48.6094C24.2437 49.0894 23.6782 49.7987 23.2526 50.6538C23.0388 51.0813 22.862 51.5457 22.7337 52.0355C22.6696 52.2803 22.6171 52.5329 22.5802 52.7895C22.5433 53.046 22.518 53.3083 22.5161 53.5648C22.5103 54.041 22.5588 54.4938 22.6541 54.9116C22.7027 55.1195 22.759 55.3216 22.8309 55.5062C22.9048 55.6889 22.9883 55.8599 23.0816 56.0193C23.2662 56.338 23.4858 56.61 23.7268 56.8219C23.9736 57.022 24.2456 57.16 24.5255 57.2319C24.5158 56.404 24.4944 55.6092 24.4983 54.7989C24.4983 54.4044 24.4944 54.0099 24.4924 53.6154C24.4924 53.423 24.4905 53.2306 24.4886 53.0402C24.4886 52.8458 24.4905 52.6534 24.4924 52.461C24.5196 52.8342 24.5605 53.1956 24.5993 53.5687C24.6362 53.9477 24.6732 54.3286 24.712 54.7134C24.747 55.1078 24.7917 55.4907 24.8345 55.8852C24.8772 56.2836 24.9219 56.6858 24.9666 57.0881C25.4349 56.5129 25.7828 55.7122 26.0121 54.8241C26.1268 54.3791 26.2103 53.9127 26.2647 53.4424C26.3192 52.9721 26.3405 52.5019 26.3425 52.0199C26.3425 51.5146 26.3036 51.0618 26.2336 50.6674C26.1967 50.473 26.1579 50.2806 26.1112 50.1038C26.0646 49.9269 26.0102 49.7657 25.946 49.6219C25.6837 49.0544 25.33 48.6793 24.8286 48.6152V48.6094Z" fill="white"></path><path d="M19.6406 51.0199C19.594 51.3969 19.5493 51.7778 19.5027 52.1587C19.4599 52.5415 19.4191 52.9263 19.3764 53.313C19.9438 52.8738 20.4413 52.1975 20.8435 51.4144C21.0457 51.0218 21.2186 50.6059 21.3702 50.1726C21.5257 49.7353 21.6539 49.2845 21.7491 48.8375C21.7997 48.6004 21.8385 48.3731 21.8657 48.1574C21.8929 47.9416 21.9085 47.7376 21.9221 47.5355C21.9454 47.1352 21.926 46.7815 21.8599 46.4803C21.7899 46.1849 21.7005 45.9167 21.5567 45.7146C21.4149 45.5105 21.2283 45.3628 20.9971 45.2773C20.6687 45.4425 20.3422 45.6582 20.0176 45.9284C19.6931 46.1985 19.3783 46.5172 19.0907 46.8748C18.5155 47.5918 18.0452 48.478 17.8023 49.4671C17.6896 49.9238 17.6526 50.3514 17.6565 50.7653C17.6643 51.1734 17.7129 51.5679 17.8217 51.906C17.9325 52.2422 18.0841 52.5434 18.2706 52.7922C18.3639 52.9166 18.4649 53.0293 18.5718 53.1264C18.6787 53.2236 18.8031 53.2974 18.9274 53.3596C18.9663 53.1672 19.0071 52.9748 19.046 52.7825C19.0887 52.5881 19.1296 52.3957 19.1723 52.2014C19.2559 51.8186 19.3375 51.4377 19.4191 51.0587C19.4988 50.6876 19.5765 50.3183 19.6542 49.9491C19.7378 49.5818 19.8194 49.2145 19.903 48.8492C19.8583 49.2067 19.8117 49.5643 19.767 49.9258C19.7261 50.2892 19.6834 50.6545 19.6426 51.0218L19.6406 51.0199Z" fill="white"></path><path d="M15.806 46.2787C15.5747 46.9589 15.3143 47.6721 15.0831 48.3795C16.3345 47.7809 17.5005 46.269 18.2332 44.658C18.3284 44.4462 18.41 44.2402 18.478 44.042C18.513 43.9429 18.5421 43.8457 18.5732 43.7505C18.6043 43.6533 18.6335 43.5581 18.6587 43.4648C18.7598 43.0917 18.8103 42.7535 18.8103 42.4543C18.8025 42.1589 18.7676 41.8888 18.6743 41.6653C18.581 41.4418 18.4353 41.263 18.2332 41.1348C16.8728 41.4885 15.2463 42.6797 14.3893 44.4481C14.193 44.8543 14.0725 45.2507 13.9909 45.6374C13.9151 46.0242 13.886 46.3992 13.9112 46.7432C13.9851 47.4175 14.2358 47.9928 14.6478 48.3309C14.9626 47.6391 15.2754 46.9531 15.5883 46.269C15.738 45.9348 15.8876 45.6044 16.0372 45.2721C16.1888 44.9417 16.3404 44.6133 16.492 44.2868C16.3773 44.6133 16.2607 44.9437 16.1441 45.274C16.0314 45.6064 15.9187 45.9425 15.804 46.2787H15.806Z" fill="white"></path><path d="M13.5181 40.1775C13.3471 40.471 13.1741 40.7663 12.9992 41.0637C12.8185 41.3668 12.6358 41.67 12.4531 41.977C12.2744 42.2841 12.0936 42.5911 11.9129 42.9021C12.5581 42.7466 13.2344 42.3657 13.8698 41.8566C14.1866 41.602 14.4936 41.3144 14.7793 41.0054C15.0727 40.6925 15.3526 40.3563 15.5994 40.0104C15.8617 39.6431 16.0696 39.2894 16.2232 38.9591C16.3825 38.6268 16.503 38.308 16.5574 38.0224C16.6585 37.451 16.5904 36.9749 16.2562 36.6504C15.5838 36.6893 14.8065 36.9127 14.0544 37.3169C13.6794 37.5191 13.3101 37.7659 12.9623 38.0574C12.7893 38.2031 12.6203 38.3605 12.4609 38.5276C12.2996 38.6948 12.1461 38.8735 12.012 39.0582C11.7594 39.4021 11.5573 39.7558 11.4096 40.1076C11.3338 40.2825 11.2736 40.4574 11.223 40.6303C11.1783 40.8013 11.1511 40.9685 11.1317 41.1317C11.0967 41.4582 11.1123 41.7691 11.1725 42.0489C11.2036 42.1889 11.2463 42.321 11.2988 42.4434C11.3591 42.5639 11.431 42.6728 11.5126 42.7738C11.9323 42.1869 12.3774 41.5923 12.7952 41.0151C13.0012 40.7294 13.2071 40.4438 13.4112 40.1581C13.5122 40.0182 13.6114 39.8763 13.7105 39.7364C13.8135 39.5965 13.9165 39.4565 14.0175 39.3147C13.932 39.4585 13.8465 39.6023 13.761 39.7461C13.6794 39.8899 13.5958 40.0337 13.5122 40.1795L13.5181 40.1775Z" fill="white"></path><path d="M10.6428 36.3203C10.4174 36.5749 10.1881 36.8334 9.96072 37.0899C10.5962 37.0627 11.3035 36.8334 11.9973 36.4699C12.3432 36.2892 12.6852 36.0755 13.0137 35.8364C13.3498 35.5974 13.6724 35.3331 13.9678 35.0513C14.2826 34.754 14.5372 34.4606 14.751 34.1749C14.9706 33.8892 15.1338 33.6133 15.2387 33.3529C15.2912 33.2227 15.3281 33.0963 15.3534 32.9739C15.3825 32.8515 15.3981 32.7329 15.3981 32.6202C15.3981 32.3929 15.334 32.1849 15.2077 32.0023C13.9251 31.8235 12.1197 32.2801 10.7691 33.4889C10.4679 33.7668 10.2153 34.0622 10.0112 34.3634C9.91019 34.515 9.81885 34.6685 9.74112 34.8201C9.66145 34.9736 9.59926 35.1252 9.55457 35.2768C9.46323 35.578 9.42048 35.8714 9.42631 36.1454C9.43019 36.2834 9.44574 36.4136 9.47489 36.5399C9.50598 36.6643 9.55456 36.7809 9.61286 36.8897C10.1259 36.4155 10.637 35.9433 11.1461 35.473C11.3929 35.2418 11.6378 35.0105 11.8826 34.7812C12.1275 34.5538 12.3724 34.3265 12.6172 34.0991C12.1916 34.581 11.7622 35.0669 11.3269 35.5585C11.1014 35.8092 10.8741 36.0619 10.6448 36.3164L10.6428 36.3203Z" fill="white"></path><path d="M10.6147 30.0348C10.0978 30.4274 9.57696 30.8238 9.05032 31.2261C10.2591 31.4088 11.8642 30.8841 13.1915 30.0387C13.8756 29.5879 14.408 29.1156 14.6937 28.659C14.8317 28.4296 14.9444 28.2062 14.9794 27.9905C15.0182 27.7728 14.9968 27.5649 14.9094 27.3647C14.3283 27.1645 13.5821 27.0907 12.8067 27.1801C12.0294 27.2695 11.2152 27.5241 10.4728 27.971C10.125 28.177 9.84708 28.4122 9.59833 28.6609C9.35348 28.9096 9.15137 29.1739 8.99979 29.4402C8.7219 29.9746 8.62474 30.5187 8.75882 30.9735C9.3321 30.6198 9.91121 30.2661 10.4612 29.9182C11.0092 29.5723 11.5533 29.2303 12.0955 28.8883C11.8506 29.0768 11.6058 29.2653 11.359 29.4538C11.1122 29.6462 10.8634 29.8386 10.6147 30.0329V30.0348Z" fill="white"></path><path d="M9.67921 23.8159C9.31387 24.2668 9.14286 24.7642 9.17589 25.2112C10.4021 24.7545 11.5487 24.292 12.6836 23.8451C12.1589 24.1132 11.6264 24.3853 11.0881 24.6593C10.8122 24.7973 10.5362 24.9372 10.2564 25.0752C9.97265 25.2151 9.68504 25.355 9.4052 25.4969C9.95516 25.6912 10.6334 25.7379 11.3427 25.664C12.0539 25.5902 12.8157 25.4036 13.5056 25.1199C13.6883 25.0441 13.8593 24.9664 14.0186 24.8828C14.1799 24.8012 14.3354 24.7176 14.4753 24.6302C14.7571 24.4572 14.9864 24.2726 15.1632 24.0802C15.2487 23.983 15.3284 23.8878 15.3964 23.7926C15.4625 23.6954 15.515 23.5983 15.5519 23.4972C15.6257 23.299 15.6432 23.0969 15.5966 22.8928C15.0874 22.6033 14.3995 22.4031 13.6533 22.3526C12.907 22.3021 12.0967 22.3992 11.3232 22.6907C10.9598 22.8229 10.6548 22.9939 10.3788 23.1843C10.1048 23.3748 9.8716 23.5866 9.68115 23.8101L9.67921 23.8159Z" fill="white"></path><path d="M10.5918 19.8261C11.82 19.6123 12.9762 19.3752 14.1169 19.1517C13.5767 19.313 13.0306 19.4763 12.4787 19.6434C12.197 19.725 11.9132 19.8066 11.6276 19.8902C11.338 19.9718 11.0465 20.0554 10.755 20.137C11.235 20.4149 11.8647 20.5781 12.5429 20.6326C13.225 20.6889 13.9693 20.6442 14.6669 20.4965C15.3956 20.3333 16.0117 20.104 16.4042 19.8028C16.5986 19.6492 16.7657 19.4938 16.8687 19.3189C16.9736 19.144 17.0241 18.9574 17.0164 18.7572C16.1477 18.0324 14.5931 17.5563 13.0365 17.8381C12.3252 17.9702 11.7403 18.2539 11.303 18.6076C10.8852 18.9671 10.6345 19.4024 10.5898 19.828L10.5918 19.8261Z" fill="white"></path><path d="M13.7417 13.9588C13.2928 14.227 12.976 14.5846 12.8672 14.981C13.4521 14.981 14.039 14.9829 14.6045 14.9752C15.1661 14.9655 15.7258 14.9557 16.2816 14.946C15.7491 15.0063 15.2108 15.0685 14.6667 15.1306C14.107 15.187 13.5415 15.2434 12.9682 15.2997C13.7767 15.9857 15.1972 16.3316 16.5672 16.2986C16.9306 16.2889 17.2493 16.2442 17.5467 16.1859C17.844 16.1276 18.1025 16.044 18.3162 15.9371C18.736 15.7175 19.0178 15.4338 19.0702 15.0587C18.3823 14.2367 16.9948 13.5255 15.4926 13.5313C14.8124 13.5429 14.2003 13.6984 13.7417 13.9608V13.9588Z" fill="white"></path><path d="M17.1414 12.0052C17.7011 12.2675 18.3307 12.4463 18.9817 12.5473C19.3237 12.5979 19.6385 12.6154 19.9223 12.6037C20.0641 12.5979 20.1943 12.5823 20.3245 12.5648C20.4528 12.5473 20.5733 12.524 20.684 12.4929C21.1291 12.3686 21.4147 12.1159 21.543 11.7875C21.2904 11.3483 20.8687 10.9052 20.3323 10.5399C20.0641 10.3572 19.7649 10.194 19.4481 10.0618C19.1333 9.93358 18.799 9.83641 18.4492 9.78006C18.1266 9.72759 17.8157 9.71204 17.5242 9.72953C17.2308 9.74508 16.9743 9.81115 16.7372 9.89471C16.2669 10.0677 15.9035 10.3456 15.7461 10.707C16.2902 10.8003 16.8305 10.8916 17.3688 10.9849C17.9051 11.0743 18.4259 11.152 18.939 11.2259C17.9479 11.189 16.8713 11.0996 15.783 11.0199C16.0998 11.4066 16.5817 11.7428 17.1394 12.0032L17.1414 12.0052Z" fill="white"></path><path d="M22.8607 9.68588C23.1308 9.72474 23.3757 9.72863 23.5894 9.69948C23.6983 9.68587 23.7954 9.66061 23.8907 9.6334C23.9859 9.60814 24.0733 9.57316 24.1511 9.53041C24.3085 9.4449 24.429 9.32636 24.5125 9.17478C24.1822 8.26919 23.2202 7.26061 21.9415 6.80587C21.3585 6.60765 20.8027 6.5649 20.3286 6.64069C20.0895 6.67567 19.8855 6.75729 19.7067 6.85834C19.5299 6.96133 19.3822 7.08959 19.2753 7.23729C19.7708 7.41996 20.2606 7.59292 20.7406 7.75615C21.2206 7.91745 21.7064 8.09235 22.1728 8.24393C21.9396 8.19146 21.7044 8.13705 21.4654 8.07875C21.3449 8.0496 21.2244 8.02045 21.104 7.98935C20.9854 7.96215 20.8649 7.933 20.7444 7.90579C20.2625 7.79113 19.765 7.66676 19.2578 7.53073C19.7203 8.35275 20.8299 9.10482 21.9901 9.476C22.2952 9.56928 22.5925 9.64506 22.8607 9.68199V9.68588Z" fill="white"></path><path d="M21.1891 60.4313C20.781 60.5363 20.3651 60.6296 19.9434 60.7092C19.5217 60.7889 19.0903 60.8589 18.6686 60.8958C18.8804 60.8511 19.0884 60.8103 19.2982 60.7559C19.5101 60.7015 19.7199 60.6432 19.9259 60.5829C20.3399 60.4605 20.748 60.3264 21.1444 60.1806C21.9353 59.8969 22.7165 59.5257 23.4511 59.1274C23.2296 58.9136 22.9536 58.7465 22.6369 58.6182C22.3259 58.4783 21.9703 58.385 21.5739 58.3325C21.3756 58.3073 21.1697 58.2937 20.952 58.2898C20.7382 58.284 20.5206 58.282 20.2913 58.2937C19.8346 58.317 19.3468 58.387 18.8357 58.5016C18.5578 58.5677 18.2916 58.6338 18.0293 58.7115C17.7669 58.7892 17.5104 58.8786 17.2617 58.9777C16.7642 59.174 16.2978 59.4111 15.8839 59.6773C15.0521 60.2098 14.4244 60.8705 14.1562 61.6012C14.576 62.2581 15.3222 62.8119 16.2861 63.0781C16.5251 63.1481 16.7739 63.2045 17.0304 63.2433C17.2869 63.2841 17.5493 63.3094 17.8272 63.3055C18.3752 63.3055 18.9426 63.2375 19.5081 63.0937C20.0386 62.9635 20.542 62.7536 20.9928 62.5087C21.4437 62.2619 21.844 61.9763 22.1918 61.6634C22.8856 61.0377 23.3598 60.3089 23.5832 59.5957C23.1985 59.7609 22.8059 59.9144 22.4037 60.0563C22.0033 60.1981 21.5933 60.3303 21.1871 60.4313H21.1891Z" fill="white"></path><path d="M15.9192 56.8724C16.7062 56.4293 17.3106 55.8464 17.674 55.2264C17.2756 55.3022 16.8694 55.3683 16.4652 55.4169C16.0649 55.4596 15.6607 55.4888 15.2546 55.5043C14.8465 55.5199 14.4364 55.5238 14.0205 55.514C13.6105 55.4985 13.2082 55.4635 12.7963 55.4188C13.2121 55.4246 13.6241 55.4149 14.0322 55.3936C14.4481 55.3644 14.8601 55.3197 15.2662 55.2634C15.6724 55.207 16.0727 55.139 16.4691 55.0574C16.6673 55.0166 16.8617 54.9757 17.0599 54.9252C17.2581 54.8747 17.4563 54.8222 17.6506 54.7659C17.569 54.6434 17.468 54.5327 17.363 54.42C17.2581 54.3072 17.1376 54.2042 17.0055 54.1071C16.7412 53.9147 16.4244 53.7534 16.061 53.6271C15.7015 53.4969 15.3128 53.3842 14.8737 53.3181C14.4403 53.2462 13.9564 53.219 13.4628 53.2151C12.394 53.2073 11.3388 53.3842 10.4468 53.7165C9.99984 53.8836 9.59563 54.0876 9.25361 54.3306C8.91159 54.5715 8.62398 54.8572 8.42188 55.1701C8.54819 55.5199 8.76195 55.8561 9.04373 56.1651C9.32746 56.474 9.67337 56.7597 10.097 56.9793C10.5148 57.2047 10.9851 57.3835 11.4865 57.504C11.7352 57.5662 12.0015 57.6051 12.2735 57.6284C12.5456 57.6517 12.8235 57.6595 13.1033 57.6478C13.6338 57.6284 14.1391 57.5468 14.6094 57.4166C15.0835 57.2805 15.5247 57.092 15.9172 56.8705L15.9192 56.8724Z" fill="white"></path><path d="M12.8136 50.0205C12.0187 50.0069 11.2589 49.9136 10.4816 49.7795C10.0949 49.7115 9.70426 49.6318 9.31754 49.5385C8.94054 49.4394 8.56354 49.3248 8.18848 49.2004C8.57908 49.2878 8.96775 49.3636 9.35641 49.4258C9.74701 49.4861 10.1493 49.5249 10.5418 49.556C10.9363 49.5852 11.3289 49.6027 11.7175 49.6085C12.1101 49.6124 12.4871 49.6085 12.8835 49.5813C12.8272 49.4511 12.7669 49.3189 12.6892 49.1926C12.6115 49.0663 12.5201 48.9439 12.4152 48.8253C12.2034 48.5902 11.9371 48.3745 11.6204 48.1802C11.3133 47.98 10.9655 47.7973 10.5671 47.6438C10.1726 47.4883 9.72564 47.364 9.2573 47.2629C7.25375 46.8218 5.14331 47.0822 4.12891 48.1024C4.17749 48.4542 4.30769 48.8117 4.51174 49.1576C4.71384 49.5036 4.98396 49.8378 5.33764 50.1274C5.6855 50.4208 6.0897 50.6832 6.53667 50.8969C6.64938 50.9494 6.76209 50.9999 6.88063 51.0485C6.99917 51.0951 7.12355 51.1359 7.24792 51.1729C7.4986 51.2487 7.75901 51.3108 8.02524 51.3575C10.0327 51.7228 11.8866 51.031 12.8155 50.0205H12.8136Z" fill="white"></path><path d="M5.96341 44.7266C6.4162 44.7868 6.85733 44.7946 7.2732 44.7557C8.10494 44.678 8.83562 44.4176 9.37586 44.0328C9.01052 43.9454 8.64518 43.8462 8.28178 43.7355C7.92809 43.6208 7.5783 43.4945 7.2285 43.3546C6.87871 43.2166 6.5328 43.065 6.18883 42.9037C6.01588 42.8221 5.84487 42.7385 5.67386 42.653C5.50867 42.5636 5.34544 42.4723 5.18026 42.379C5.35515 42.4568 5.52811 42.5326 5.70301 42.6045C5.87985 42.6764 6.06252 42.7424 6.24325 42.8066C6.6047 42.9348 6.96616 43.0514 7.32955 43.1564C8.0583 43.3643 8.77538 43.5295 9.52938 43.6325C9.50606 43.4984 9.4672 43.3643 9.41473 43.2322C9.36809 43.0981 9.3059 42.964 9.23205 42.8318C9.08242 42.5675 8.87449 42.313 8.61797 42.0681C8.48971 41.9457 8.34591 41.8271 8.19627 41.7105C8.05052 41.592 7.89117 41.4773 7.72016 41.3666C7.38008 41.145 6.99336 40.941 6.56389 40.7602C6.33069 40.6631 6.10138 40.5737 5.87402 40.496C5.64471 40.4182 5.41345 40.3502 5.1822 40.2938C4.72163 40.1811 4.26301 40.1131 3.82383 40.0937C2.94739 40.0548 2.15064 40.2103 1.57542 40.5951C1.53072 41.2713 1.77947 42.037 2.32359 42.7113C2.59177 43.0495 2.91047 43.3721 3.29719 43.6539C3.68779 43.9318 4.12893 44.1747 4.60892 44.3632C5.06171 44.542 5.5145 44.6624 5.96147 44.7246L5.96341 44.7266Z" fill="white"></path><path d="M2.73498 37.129C3.12947 37.3816 3.53563 37.576 3.94178 37.7198C4.35765 37.8616 4.76963 37.9491 5.16801 37.9899C5.96282 38.0715 6.70128 37.9627 7.28038 37.7023C6.95391 37.5526 6.62743 37.3914 6.30678 37.2184C5.99585 37.0454 5.68881 36.8608 5.38566 36.6645C5.0825 36.4683 4.78323 36.2642 4.48785 36.0485C4.19052 35.8328 3.9204 35.6035 3.64445 35.3664C3.94566 35.5782 4.24493 35.7784 4.55975 35.9669C4.87651 36.1535 5.19716 36.3303 5.51974 36.4955C6.16881 36.8258 6.81399 37.1135 7.50192 37.3525C7.50581 37.2223 7.4922 37.0882 7.46888 36.9541C7.44945 36.8181 7.41641 36.682 7.36977 36.5441C7.2765 36.2681 7.1288 35.9883 6.93059 35.7123C6.82953 35.5743 6.72265 35.4344 6.608 35.2964C6.4914 35.1585 6.3612 35.0205 6.22128 34.8864C5.9395 34.6163 5.61108 34.352 5.24185 34.1032C3.69109 33.0247 1.80219 32.5194 0.577909 33.0305C0.233944 34.2879 1.04236 36.0738 2.73693 37.129H2.73498Z" fill="white"></path><path d="M2.44455 29.9353C3.73685 31.1654 5.42947 31.5774 6.60906 31.3015C6.03772 30.8992 5.52469 30.46 5.01943 29.9859C4.76874 29.7488 4.52194 29.502 4.2868 29.2474C4.05749 28.9928 3.83595 28.7285 3.62025 28.4565C3.8651 28.7091 4.11579 28.9501 4.37036 29.1833C4.62494 29.4165 4.90283 29.6399 5.17489 29.8518C5.72679 30.2793 6.28452 30.666 6.87918 31.0158C6.99383 30.528 6.91999 29.9664 6.64209 29.3756C6.51772 29.0803 6.34671 28.7771 6.12906 28.472C5.91529 28.1669 5.64129 27.8618 5.35368 27.5625C4.71822 26.9173 3.97976 26.3946 3.24325 26.0623C2.50673 25.73 1.78188 25.592 1.15613 25.7222C1.02204 26.0001 0.948197 26.3207 0.932651 26.6667C0.919048 27.0126 0.950141 27.3818 1.07063 27.7588C1.29994 28.5128 1.74301 29.2863 2.44455 29.9334V29.9353Z" fill="white"></path><path d="M2.72965 21.9616C2.8035 22.154 2.88901 22.3445 2.99394 22.5349C3.10083 22.7254 3.22131 22.9119 3.3554 23.0946C3.8626 23.7845 4.47669 24.3033 5.12575 24.6434C5.77676 24.9835 6.43943 25.1429 7.02048 25.1195C6.78728 24.8805 6.57546 24.6357 6.36753 24.383C6.1596 24.1304 5.95943 23.87 5.7651 23.6018C5.36867 23.0655 5.03248 22.5058 4.72155 21.9208C5.45029 23.0344 6.35781 24.0352 7.32364 24.8999C7.52963 24.4646 7.54323 23.9205 7.39748 23.3181C7.33335 23.0188 7.22453 22.704 7.07295 22.3795C6.92332 22.0549 6.72315 21.7207 6.5055 21.3884C6.02162 20.6713 5.41725 20.0514 4.78373 19.6122C4.15216 19.173 3.49338 18.9165 2.88123 18.9281C2.70828 19.1652 2.58391 19.4509 2.50812 19.7715C2.47119 19.9309 2.44593 20.0999 2.43427 20.2748C2.42067 20.4497 2.42261 20.6305 2.44593 20.817C2.48674 21.1901 2.58196 21.5769 2.72771 21.9616H2.72965Z" fill="white"></path><path d="M6.82046 18.5629C7.37041 18.9943 7.96506 19.2586 8.51308 19.3402C8.33624 19.074 8.18077 18.8097 8.03114 18.5357C7.87956 18.2636 7.7377 17.9838 7.60167 17.7C7.46758 17.4163 7.33349 17.1248 7.22272 16.8333C7.11195 16.5418 7.00701 16.2464 6.91179 15.9452C7.40345 17.1132 8.08166 18.2092 8.83567 19.1867C9.10384 18.8136 9.21267 18.3064 9.17963 17.7156C9.16409 17.1326 8.9853 16.4563 8.67437 15.7528C8.01365 14.2448 6.836 13.0147 5.69722 12.8301C5.49512 13.0205 5.32799 13.2673 5.20168 13.5549C5.07925 13.8425 4.98597 14.1651 4.96654 14.5227C4.9199 15.234 5.04039 16.0288 5.4271 16.8081C5.78273 17.5407 6.2705 18.1354 6.81851 18.5648L6.82046 18.5629Z" fill="white"></path><path d="M10.9359 14.1271C10.6969 13.5713 10.5181 13.0155 10.3607 12.4364C10.283 12.1488 10.213 11.8573 10.1508 11.5619C10.0906 11.2665 10.0498 10.9769 10.0109 10.6796C10.0789 10.975 10.1528 11.2645 10.2402 11.5522C10.3316 11.8417 10.4307 12.1293 10.5356 12.4092C10.7494 12.9727 10.9865 13.513 11.2643 14.0396C11.5714 13.7326 11.7716 13.2817 11.8357 12.7201C11.9095 12.1662 11.8765 11.5133 11.6919 10.7962C11.3246 9.27264 10.4365 7.93368 9.39683 7.56445C8.95375 7.85207 8.5923 8.36122 8.43295 9.02C8.34938 9.34648 8.30469 9.70211 8.30469 10.0713C8.30663 10.4425 8.3727 10.839 8.47959 11.2315C8.88185 12.7162 9.93901 13.7909 10.9359 14.1251V14.1271Z" fill="white"></path><path d="M13.0363 8.5149C13.3648 9.05126 13.7826 9.4613 14.2218 9.70422C13.9653 8.59264 13.8817 7.47717 13.9167 6.33255C13.9516 6.90778 14.0274 7.47911 14.1285 8.0349C14.179 8.3128 14.2393 8.58875 14.3053 8.86082C14.3772 9.13677 14.4569 9.41078 14.5444 9.6809C14.8708 9.43798 15.1371 9.05515 15.2945 8.54794C15.3761 8.29725 15.4227 8.00575 15.4577 7.70648C15.4907 7.40527 15.4985 7.07879 15.4733 6.73288C15.448 6.35976 15.3878 5.99053 15.2984 5.64267C15.2129 5.29676 15.1021 4.97028 14.9622 4.67101C14.6843 4.07441 14.3034 3.59635 13.8487 3.33789C12.9159 3.71101 12.2474 5.05773 12.4009 6.5949C12.4611 7.31393 12.7079 7.98243 13.0344 8.5149H13.0363Z" fill="white"></path><path d="M17.9662 5.98544C17.9468 5.45686 17.9565 4.92245 17.9973 4.38609C18.007 4.252 18.0187 4.11791 18.0342 3.98382C18.0498 3.85168 18.0692 3.72147 18.0906 3.59127C18.1314 3.32892 18.18 3.06657 18.2363 2.80617C18.178 3.34836 18.1411 3.875 18.1528 4.41718C18.1644 4.95937 18.2053 5.49378 18.2733 6.02042C18.4501 5.9388 18.6133 5.81832 18.761 5.65897C18.9087 5.50156 19.035 5.29945 19.1555 5.08374C19.3907 4.64649 19.55 4.07516 19.6122 3.41831C19.7638 2.02884 19.4043 0.62576 18.6425 0.00195312C18.4132 0.0544229 18.1878 0.163248 17.9759 0.318714C17.871 0.396447 17.768 0.485841 17.6708 0.58495C17.5737 0.68406 17.4862 0.802601 17.4027 0.926974C17.2355 1.17572 17.0937 1.46139 16.9868 1.77426C16.878 2.08714 16.8022 2.42528 16.7808 2.79451C16.6836 4.1801 17.2258 5.39079 17.9662 5.98544Z" fill="white"></path><path d="M27.7101 59.456V59.4501L27.5488 59.3802C27.5216 59.3685 27.4944 59.3549 27.4672 59.3413L26.7618 59.042L26.2857 58.838C26.1302 58.7642 25.9748 58.6864 25.8193 58.6106L24.8884 58.154C24.5833 57.9907 24.2841 57.8197 23.9809 57.6526L23.5281 57.3999C23.3766 57.3164 23.2347 57.2192 23.087 57.1279L22.2086 56.576C21.9171 56.3894 21.6412 56.1815 21.3555 55.9852C21.0737 55.785 20.7842 55.5946 20.516 55.375L19.6998 54.7356C19.6318 54.6812 19.5618 54.6307 19.4958 54.5743L19.2995 54.4033L18.9089 54.0633L18.5163 53.7232C18.3842 53.6105 18.254 53.4958 18.1335 53.3734L17.3873 52.6524C17.1327 52.4173 16.9034 52.1588 16.6663 51.9062C16.4312 51.6516 16.1902 51.4028 15.9609 51.1424L15.2924 50.3457L14.9581 49.9473L14.6453 49.5314L14.0195 48.6997C13.8174 48.4179 13.6309 48.1264 13.4346 47.8407C13.0343 47.2733 12.6922 46.6709 12.3327 46.0762C12.1462 45.7828 11.9946 45.4699 11.8314 45.1648C11.6701 44.8577 11.5049 44.5526 11.3475 44.2436L10.9102 43.2972L10.6926 42.825C10.6168 42.6695 10.5604 42.5044 10.4944 42.3431C10.2378 41.6979 9.96772 41.0566 9.75784 40.3939L9.58878 39.9003L9.50521 39.6535L9.43331 39.4028L9.14376 38.402C8.79396 37.0572 8.48692 35.6969 8.31785 34.3152L8.24401 33.7983L8.19348 33.2794C8.16239 32.9335 8.12352 32.5876 8.09826 32.2397C8.06716 31.544 8.01664 30.8483 8.03024 30.1526C8.01469 29.4549 8.05939 28.7592 8.08854 28.0635C8.10992 27.7157 8.14878 27.3698 8.17793 27.0219L8.22652 26.5011L8.29648 25.9822C8.46554 24.5986 8.75704 23.2305 9.11461 21.8818C9.20983 21.5456 9.29922 21.2094 9.40027 20.8752L9.72869 19.8802C9.83169 19.5459 9.96772 19.2253 10.0882 18.8969C10.2126 18.5704 10.3311 18.242 10.4769 17.9252C11.5632 15.3523 13.0071 12.927 14.7599 10.7446L15.4284 9.93621C15.6597 9.67386 15.8987 9.41734 16.1338 9.15888C16.2524 9.03062 16.367 8.89653 16.4914 8.7741L16.8626 8.40293L17.2357 8.03175L17.4223 7.84713L17.6166 7.67029L18.3959 6.96681C18.6601 6.7375 18.9361 6.52179 19.2062 6.29636C19.3422 6.18559 19.4763 6.07288 19.6143 5.96406L20.0379 5.65118L20.4616 5.3383C20.6035 5.23531 20.7414 5.12648 20.8891 5.0332C20.7395 5.12454 20.5996 5.23142 20.4558 5.33248L20.0282 5.63952L19.6007 5.94656C19.4608 6.05345 19.3248 6.16422 19.1887 6.27304C18.9167 6.49264 18.6349 6.70446 18.3686 6.93183L17.5777 7.6256L17.3795 7.79855L17.191 7.98122L16.8121 8.34657L16.4331 8.71191C16.3068 8.8324 16.1902 8.96649 16.0697 9.09281C15.8307 9.34932 15.5878 9.6039 15.3507 9.86236L14.6666 10.665C12.8749 12.8298 11.3883 15.2493 10.2553 17.8261C10.1038 18.1448 9.97938 18.4732 9.84918 18.7997C9.72286 19.1281 9.57906 19.4507 9.47218 19.785L9.12627 20.7838C9.02133 21.12 8.92416 21.4582 8.82311 21.7963C8.44222 23.1508 8.12741 24.5306 7.93696 25.9278L7.85729 26.4506L7.80093 26.9772C7.76595 27.329 7.7232 27.6788 7.69599 28.0305C7.65713 28.734 7.60271 29.4394 7.60854 30.1448C7.58522 30.8503 7.62603 31.5557 7.64741 32.2611C7.66879 32.6128 7.70182 32.9646 7.72903 33.3163L7.77178 33.8449L7.8398 34.3696C7.99332 35.7746 8.28481 37.1622 8.62101 38.5342L8.90084 39.5563L8.9708 39.8129L9.05242 40.0655L9.2176 40.5688C9.42165 41.247 9.68788 41.9019 9.93857 42.5646C10.0046 42.7278 10.0591 42.8969 10.1348 43.0582L10.3506 43.544L10.782 44.5138C10.9394 44.8305 11.1026 45.1453 11.262 45.4602C11.4252 45.775 11.5768 46.0956 11.7614 46.3968C12.119 47.009 12.459 47.6309 12.8613 48.2158C13.0576 48.5112 13.2441 48.8124 13.4462 49.1039L14.0739 49.9628L14.3887 50.3923L14.7249 50.8043L15.3973 51.6302C15.6286 51.8984 15.8715 52.1569 16.1086 52.4211C16.3476 52.6835 16.5808 52.9517 16.8373 53.1965L17.5933 53.9467C17.7176 54.0749 17.8478 54.1935 17.9819 54.3101L18.3784 54.6657L18.7748 55.0213L18.973 55.1982C19.041 55.2565 19.111 55.3109 19.179 55.3672L20.0088 56.0357C20.2809 56.265 20.5743 56.4652 20.8619 56.6751C21.1515 56.8811 21.4332 57.0987 21.7306 57.295L22.6264 57.8741C22.7761 57.9693 22.9218 58.0723 23.0773 58.1598L23.5398 58.426C23.8488 58.6029 24.1539 58.7836 24.4667 58.9565L25.419 59.4404C25.5783 59.5201 25.7357 59.6037 25.8951 59.6814L26.3829 59.8991L27.0883 60.2119C29.4028 61.2302 31.2664 63.0511 32.3352 65.3404L32.4887 65.6688L33.3593 65.2626L33.2058 64.9342C32.0748 62.5148 30.1315 60.5753 27.716 59.4463L27.7101 59.456Z" fill="white"></path><path d="M185.751 4.80959C186.678 5.30902 187.737 5.31096 188.511 4.87955C188.345 4.72602 188.176 4.57444 188.002 4.42869C187.823 4.29266 187.638 4.15857 187.452 4.03031C187.265 3.90205 187.075 3.77574 186.88 3.65525C186.686 3.53671 186.48 3.4376 186.278 3.3346C186.494 3.41039 186.711 3.48618 186.921 3.57946C187.129 3.67468 187.335 3.77574 187.539 3.88262C187.743 3.9895 187.945 4.10027 188.145 4.21687C188.338 4.34319 188.53 4.47339 188.717 4.60748C188.746 4.38205 188.734 4.14691 188.684 3.91177C188.658 3.79323 188.623 3.67663 188.579 3.55808C188.534 3.44149 188.476 3.33266 188.41 3.22189C188.277 3.00229 188.11 2.79047 187.908 2.5942C187.807 2.49703 187.7 2.40375 187.584 2.3163C187.467 2.22885 187.339 2.15695 187.207 2.08699C186.641 1.79355 186.048 1.65946 185.504 1.72553C184.964 1.77994 184.492 1.98788 184.162 2.32796C184.144 2.8099 184.294 3.30351 184.572 3.73104C184.855 4.14885 185.244 4.54529 185.753 4.80764L185.751 4.80959Z" fill="white"></path><path d="M183.987 54.8222C184.216 55.7103 184.562 56.5129 185.032 57.0861C185.077 56.6839 185.12 56.2816 185.164 55.8832C185.209 55.4907 185.254 55.1059 185.287 54.7114C185.324 54.3286 185.362 53.9457 185.399 53.5668C185.438 53.1937 185.477 52.8322 185.506 52.4591C185.506 52.6515 185.508 52.8458 185.51 53.0382C185.51 53.2306 185.508 53.421 185.506 53.6134C185.506 54.006 185.502 54.4005 185.5 54.7969C185.502 55.6073 185.483 56.4001 185.473 57.2299C185.751 57.158 186.023 57.022 186.272 56.8199C186.513 56.6081 186.733 56.336 186.917 56.0173C187.01 55.858 187.094 55.6869 187.168 55.5043C187.24 55.3197 187.296 55.1176 187.345 54.9096C187.44 54.4918 187.488 54.041 187.483 53.5629C187.483 53.3083 187.457 53.044 187.418 52.7875C187.382 52.531 187.329 52.2803 187.265 52.0335C187.137 51.5438 186.958 51.0793 186.746 50.6518C186.321 49.7967 185.755 49.0874 185.17 48.6074C184.669 48.6716 184.315 49.0466 184.053 49.6141C183.989 49.7598 183.934 49.9211 183.888 50.096C183.841 50.2729 183.804 50.4652 183.765 50.6596C183.695 51.0541 183.658 51.5088 183.656 52.0121C183.658 52.4941 183.68 52.9644 183.734 53.4346C183.788 53.9049 183.874 54.3713 183.987 54.8163V54.8222Z" fill="white"></path><path d="M190.575 51.0568C190.656 51.4357 190.74 51.8166 190.821 52.1995C190.864 52.3938 190.905 52.5862 190.948 52.7805C190.987 52.9729 191.027 53.1653 191.066 53.3577C191.191 53.2935 191.315 53.2216 191.422 53.1245C191.529 53.0273 191.63 52.9146 191.723 52.7902C191.908 52.5415 192.061 52.2422 192.172 51.9041C192.281 51.564 192.329 51.1714 192.337 50.7633C192.341 50.3494 192.304 49.9238 192.191 49.4652C191.947 48.476 191.478 47.5899 190.903 46.8728C190.617 46.5152 190.301 46.1965 189.976 45.9264C189.652 45.6563 189.323 45.4406 188.997 45.2754C188.763 45.3609 188.577 45.5086 188.437 45.7126C188.295 45.9167 188.206 46.1829 188.134 46.4783C188.07 46.7795 188.048 47.1332 188.072 47.5335C188.085 47.7356 188.101 47.9397 188.128 48.1554C188.155 48.3711 188.194 48.5985 188.245 48.8356C188.34 49.2825 188.468 49.7334 188.624 50.1706C188.775 50.604 188.948 51.0199 189.15 51.4124C189.552 52.1956 190.05 52.8718 190.617 53.311C190.575 52.9243 190.534 52.5395 190.491 52.1567C190.444 51.7758 190.398 51.3949 190.353 51.0179C190.31 50.6506 190.27 50.2853 190.229 49.9219C190.182 49.5604 190.137 49.2009 190.093 48.8453C190.174 49.2106 190.258 49.5779 190.341 49.9452C190.419 50.3144 190.499 50.6837 190.577 51.0548L190.575 51.0568Z" fill="white"></path><path d="M194.41 46.2671C194.72 46.9511 195.033 47.6371 195.35 48.3289C195.764 47.9908 196.013 47.4156 196.087 46.7412C196.112 46.3973 196.083 46.0203 196.007 45.6355C195.927 45.2468 195.805 44.8523 195.609 44.4462C194.753 42.6778 193.125 41.4865 191.765 41.1328C191.563 41.2611 191.415 41.4399 191.324 41.6633C191.23 41.8868 191.197 42.1569 191.188 42.4523C191.188 42.7516 191.236 43.0897 191.339 43.4629C191.364 43.5561 191.393 43.6514 191.425 43.7485C191.456 43.8457 191.485 43.9409 191.52 44.04C191.588 44.2382 191.671 44.4442 191.765 44.6561C192.497 46.269 193.665 47.779 194.915 48.3775C194.684 47.6702 194.423 46.957 194.192 46.2768C194.077 45.9406 193.964 45.6063 193.852 45.2721C193.735 44.9417 193.619 44.6114 193.504 44.2849C193.656 44.6114 193.807 44.9398 193.959 45.2701C194.108 45.6005 194.258 45.9328 194.408 46.2671H194.41Z" fill="white"></path><path d="M196.583 40.1522C196.787 40.436 196.993 40.7216 197.199 41.0092C197.617 41.5864 198.062 42.1791 198.482 42.7679C198.564 42.6688 198.636 42.5581 198.696 42.4376C198.75 42.3152 198.791 42.183 198.822 42.0431C198.884 41.7633 198.898 41.4543 198.863 41.1258C198.845 40.9626 198.818 40.7955 198.772 40.6245C198.723 40.4515 198.661 40.2766 198.585 40.1017C198.435 39.75 198.235 39.3963 197.983 39.0523C197.849 38.8677 197.695 38.6889 197.534 38.5218C197.372 38.3547 197.205 38.1973 197.032 38.0515C196.684 37.76 196.315 37.5132 195.94 37.3111C195.188 36.9069 194.413 36.6815 193.738 36.6445C193.406 36.9691 193.336 37.4452 193.437 38.0165C193.492 38.3022 193.614 38.6209 193.771 38.9532C193.925 39.2836 194.133 39.6373 194.395 40.0045C194.642 40.3524 194.922 40.6886 195.215 40.9995C195.501 41.3085 195.808 41.5961 196.125 41.8507C196.76 42.3618 197.437 42.7407 198.082 42.8962C197.901 42.5872 197.72 42.2782 197.541 41.9712C197.359 41.6661 197.176 41.361 196.995 41.0578C196.822 40.7605 196.649 40.4651 196.477 40.1717C196.393 40.0279 196.311 39.8821 196.228 39.7383C196.142 39.5945 196.057 39.4507 195.971 39.3069C196.074 39.4468 196.175 39.5867 196.278 39.7286C196.377 39.8685 196.478 40.0084 196.578 40.1503L196.583 40.1522Z" fill="white"></path><path d="M198.857 35.4769C199.365 35.9472 199.876 36.4175 200.391 36.8936C200.449 36.7848 200.498 36.6682 200.529 36.5438C200.558 36.4194 200.573 36.2873 200.577 36.1493C200.585 35.8753 200.542 35.5819 200.449 35.2807C200.406 35.131 200.342 34.9775 200.262 34.824C200.185 34.6705 200.095 34.5189 199.992 34.3673C199.788 34.0641 199.536 33.7688 199.234 33.4928C197.884 32.2841 196.08 31.8274 194.796 32.0062C194.67 32.1908 194.607 32.3987 194.605 32.6241C194.605 32.7368 194.619 32.8554 194.65 32.9778C194.675 33.1002 194.712 33.2266 194.765 33.3568C194.87 33.6172 195.033 33.8931 195.253 34.1788C195.466 34.4645 195.721 34.7579 196.036 35.0552C196.331 35.337 196.654 35.6013 196.99 35.8403C197.316 36.0794 197.658 36.2931 198.006 36.4739C198.698 36.8353 199.407 37.0666 200.043 37.0938C199.814 36.8353 199.586 36.5788 199.361 36.3242C199.131 36.0696 198.904 35.817 198.679 35.5663C198.243 35.0747 197.814 34.5869 197.388 34.1069C197.631 34.3323 197.876 34.5597 198.123 34.789C198.368 35.0183 198.613 35.2496 198.859 35.4808L198.857 35.4769Z" fill="white"></path><path d="M201.243 30.9735C201.377 30.5187 201.28 29.9746 201.002 29.4402C200.851 29.1739 200.648 28.9096 200.404 28.6609C200.155 28.4122 199.877 28.177 199.529 27.971C198.789 27.5241 197.972 27.2675 197.195 27.1801C196.42 27.0907 195.674 27.1645 195.092 27.3647C195.005 27.5629 194.984 27.7728 195.023 27.9905C195.058 28.2081 195.17 28.4296 195.308 28.659C195.596 29.1156 196.128 29.5879 196.81 30.0387C198.138 30.8841 199.741 31.4088 200.952 31.2261C200.425 30.8238 199.902 30.4274 199.387 30.0348C199.138 29.8405 198.89 29.6481 198.643 29.4557C198.396 29.2653 198.151 29.0768 197.906 28.8902C198.449 29.2303 198.993 29.5743 199.541 29.9202C200.091 30.268 200.67 30.6198 201.243 30.9754V30.9735Z" fill="white"></path><path d="M199.627 23.1902C199.351 22.9997 199.046 22.8287 198.682 22.6966C197.909 22.4051 197.097 22.3079 196.352 22.3584C195.606 22.409 194.918 22.6091 194.409 22.8987C194.363 23.1008 194.378 23.3048 194.454 23.5031C194.491 23.6022 194.543 23.7013 194.609 23.7984C194.677 23.8956 194.757 23.9908 194.843 24.0861C195.017 24.2765 195.249 24.4611 195.53 24.636C195.67 24.7235 195.826 24.807 195.987 24.8887C196.146 24.9703 196.317 25.0499 196.5 25.1257C197.19 25.4095 197.952 25.596 198.663 25.6699C199.372 25.7437 200.053 25.6971 200.601 25.5027C200.321 25.3609 200.031 25.219 199.749 25.081C199.471 24.9411 199.194 24.8031 198.918 24.6652C198.379 24.3912 197.849 24.1191 197.322 23.8509C198.455 24.2979 199.604 24.7604 200.83 25.2171C200.863 24.7682 200.692 24.2707 200.327 23.8218C200.136 23.5983 199.903 23.3865 199.629 23.196L199.627 23.1902Z" fill="white"></path><path d="M198.695 18.6057C198.257 18.2539 197.674 17.9682 196.961 17.8361C195.405 17.5543 193.85 18.0304 192.981 18.7553C192.973 18.9535 193.024 19.142 193.129 19.3169C193.232 19.4918 193.401 19.6492 193.593 19.8008C193.986 20.102 194.602 20.3333 195.331 20.4946C196.028 20.6423 196.773 20.687 197.455 20.6306C198.133 20.5762 198.761 20.4129 199.243 20.1351C198.949 20.0515 198.66 19.9699 198.37 19.8883C198.084 19.8047 197.801 19.7231 197.519 19.6414C196.967 19.4763 196.421 19.313 195.881 19.1498C197.023 19.3752 198.178 19.6123 199.406 19.8241C199.359 19.3985 199.11 18.9632 198.693 18.6037L198.695 18.6057Z" fill="white"></path><path d="M197.129 14.9829C197.02 14.5885 196.701 14.2309 196.254 13.9608C195.796 13.6984 195.184 13.5429 194.503 13.5313C193.001 13.5255 191.614 14.2367 190.926 15.0587C190.978 15.4338 191.26 15.7175 191.68 15.9371C191.894 16.044 192.152 16.1276 192.449 16.1859C192.745 16.2442 193.065 16.2889 193.429 16.2986C194.799 16.3316 196.221 15.9857 197.028 15.2997C196.456 15.2434 195.891 15.1851 195.329 15.1306C194.785 15.0685 194.247 15.0063 193.714 14.946C194.27 14.9557 194.828 14.9655 195.392 14.9752C195.957 14.9849 196.544 14.981 197.129 14.981V14.9829Z" fill="white"></path><path d="M194.25 10.707C194.093 10.3456 193.729 10.0677 193.259 9.89471C193.022 9.81115 192.765 9.74508 192.472 9.72953C192.18 9.71204 191.869 9.72759 191.547 9.78006C191.199 9.83836 190.863 9.93358 190.548 10.0618C190.231 10.192 189.932 10.3572 189.664 10.5399C189.127 10.9052 188.706 11.3464 188.453 11.7875C188.581 12.1159 188.865 12.3705 189.312 12.4929C189.423 12.524 189.543 12.5493 189.672 12.5648C189.8 12.5823 189.93 12.5979 190.074 12.6037C190.358 12.6154 190.672 12.5979 191.014 12.5473C191.665 12.4463 192.293 12.2675 192.855 12.0052C193.414 11.7448 193.894 11.4086 194.211 11.0218C193.123 11.0996 192.046 11.189 191.055 11.2278C191.568 11.154 192.089 11.0763 192.625 10.9869C193.164 10.8955 193.704 10.8022 194.248 10.709L194.25 10.707Z" fill="white"></path><path d="M190.722 7.23729C190.613 7.08765 190.467 6.95939 190.29 6.85834C190.111 6.75729 189.909 6.67567 189.668 6.64069C189.196 6.5649 188.638 6.60765 188.055 6.80587C186.777 7.26061 185.815 8.26919 185.484 9.17478C185.566 9.32636 185.688 9.4449 185.846 9.53041C185.924 9.57316 186.011 9.60814 186.106 9.6334C186.201 9.66061 186.299 9.68587 186.407 9.69948C186.621 9.72863 186.866 9.7228 187.136 9.68587C187.406 9.64701 187.704 9.57316 188.007 9.47988C189.167 9.10871 190.277 8.35664 190.739 7.53461C190.232 7.67065 189.734 7.79696 189.252 7.90968C189.132 7.93688 189.013 7.96603 188.893 7.99324C188.772 8.02239 188.652 8.05154 188.531 8.08263C188.292 8.14093 188.055 8.19535 187.824 8.24782C188.291 8.09624 188.778 7.92328 189.256 7.76004C189.736 7.5968 190.226 7.42385 190.722 7.24117V7.23729Z" fill="white"></path><path d="M194.104 59.678C193.688 59.4118 193.221 59.1767 192.726 58.9784C192.477 58.8793 192.221 58.7899 191.958 58.7122C191.696 58.6345 191.43 58.5684 191.152 58.5023C190.641 58.3857 190.153 58.3177 189.696 58.2944C189.467 58.2808 189.249 58.2847 189.036 58.2905C188.82 58.2944 188.612 58.308 188.414 58.3333C188.019 58.3838 187.662 58.479 187.351 58.6189C187.032 58.7452 186.758 58.9124 186.536 59.1281C187.273 59.5265 188.054 59.8996 188.843 60.1814C189.242 60.3271 189.648 60.4612 190.062 60.5836C190.27 60.6439 190.477 60.7022 190.689 60.7566C190.901 60.811 191.107 60.8537 191.319 60.8965C190.897 60.8596 190.466 60.7896 190.044 60.7099C189.622 60.6303 189.207 60.537 188.798 60.432C188.392 60.331 187.982 60.1988 187.582 60.057C187.182 59.9151 186.789 59.7616 186.402 59.5964C186.626 60.3096 187.1 61.0384 187.794 61.6641C188.14 61.977 188.542 62.2646 188.993 62.5095C189.444 62.7543 189.947 62.9642 190.477 63.0944C191.043 63.2382 191.61 63.3062 192.158 63.3062C192.434 63.3101 192.699 63.2848 192.955 63.244C193.212 63.2032 193.46 63.1488 193.699 63.0789C194.663 62.8126 195.41 62.2588 195.829 61.6019C195.561 60.8712 194.933 60.2105 194.102 59.678H194.104Z" fill="white"></path><path d="M200.741 54.3268C200.399 54.0858 199.994 53.8798 199.547 53.7127C198.656 53.3804 197.598 53.2016 196.531 53.2113C196.038 53.2152 195.554 53.2424 195.121 53.3143C194.683 53.3823 194.295 53.495 193.933 53.6233C193.57 53.7496 193.253 53.9109 192.989 54.1033C192.857 54.2005 192.736 54.3035 192.631 54.4162C192.526 54.5289 192.425 54.6377 192.344 54.7621C192.54 54.8184 192.736 54.8709 192.934 54.9214C193.133 54.97 193.327 55.0128 193.525 55.0536C193.92 55.1352 194.322 55.2032 194.728 55.2596C195.134 55.3159 195.546 55.3587 195.962 55.3898C196.37 55.4112 196.782 55.4209 197.198 55.415C196.788 55.4597 196.384 55.4967 195.974 55.5103C195.56 55.52 195.148 55.5161 194.74 55.5006C194.332 55.485 193.927 55.4559 193.529 55.4131C193.125 55.3665 192.717 55.2984 192.32 55.2227C192.684 55.8426 193.288 56.4256 194.075 56.8686C194.468 57.0902 194.909 57.2787 195.383 57.4147C195.851 57.5449 196.357 57.6265 196.889 57.646C197.171 57.6557 197.447 57.6499 197.719 57.6265C197.991 57.6032 198.257 57.5644 198.506 57.5022C199.007 57.3817 199.478 57.201 199.895 56.9775C200.319 56.7579 200.665 56.4722 200.949 56.1632C201.232 55.8542 201.444 55.518 201.57 55.1682C201.37 54.8554 201.081 54.5697 200.739 54.3287L200.741 54.3268Z" fill="white"></path><path d="M200.743 47.2629C200.277 47.364 199.828 47.4883 199.434 47.6438C199.037 47.7973 198.687 47.98 198.38 48.1802C198.064 48.3745 197.797 48.5902 197.586 48.8253C197.481 48.9439 197.387 49.0663 197.312 49.1926C197.234 49.3189 197.174 49.4511 197.117 49.5813C197.514 49.6104 197.893 49.6104 198.283 49.6085C198.672 49.6027 199.064 49.5871 199.459 49.556C199.851 49.5249 200.254 49.4861 200.644 49.4258C201.033 49.3636 201.422 49.2898 201.812 49.2004C201.437 49.3267 201.06 49.4394 200.683 49.5385C200.296 49.6318 199.908 49.7115 199.519 49.7795C198.742 49.9136 197.98 50.0049 197.187 50.0205C198.116 51.031 199.97 51.7248 201.977 51.3575C202.244 51.3108 202.504 51.2487 202.755 51.1729C202.879 51.134 203.005 51.0932 203.122 51.0485C203.239 51.0019 203.353 50.9513 203.466 50.8969C203.913 50.6832 204.317 50.4208 204.665 50.1274C205.019 49.8378 205.289 49.5036 205.491 49.1576C205.693 48.8117 205.825 48.4542 205.874 48.1024C204.859 47.0822 202.749 46.8218 200.745 47.2629H200.743Z" fill="white"></path><path d="M206.17 40.0956C205.733 40.1151 205.275 40.1831 204.812 40.2958C204.581 40.3522 204.35 40.4202 204.12 40.4979C203.891 40.5756 203.664 40.665 203.43 40.7622C203.003 40.9429 202.616 41.147 202.274 41.3685C202.103 41.4793 201.946 41.594 201.798 41.7125C201.648 41.8291 201.505 41.9476 201.376 42.0701C201.12 42.3149 200.912 42.5695 200.762 42.8338C200.686 42.9659 200.626 43.1 200.579 43.2341C200.527 43.3663 200.488 43.5004 200.465 43.6344C201.219 43.5314 201.938 43.3663 202.665 43.1583C203.028 43.0534 203.39 42.9387 203.751 42.8085C203.932 42.7444 204.114 42.6783 204.291 42.6064C204.466 42.5345 204.641 42.4587 204.814 42.381C204.651 42.4762 204.486 42.5676 204.32 42.655C204.149 42.7425 203.978 42.826 203.805 42.9057C203.461 43.067 203.114 43.2166 202.766 43.3565C202.416 43.4945 202.066 43.6228 201.712 43.7374C201.349 43.8482 200.984 43.9473 200.618 44.0348C201.159 44.4195 201.889 44.68 202.721 44.7577C203.137 44.7966 203.578 44.7888 204.031 44.7285C204.476 44.6644 204.931 44.5459 205.383 44.3671C205.863 44.1786 206.304 43.9357 206.695 43.6578C207.082 43.3779 207.401 43.0534 207.669 42.7152C208.213 42.0429 208.462 41.2772 208.417 40.599C207.842 40.2142 207.045 40.0587 206.168 40.0976L206.17 40.0956Z" fill="white"></path><path d="M204.761 34.1029C204.391 34.3517 204.061 34.616 203.781 34.8861C203.641 35.0221 203.511 35.1582 203.395 35.2961C203.28 35.4341 203.173 35.574 203.072 35.712C202.874 35.9899 202.726 36.2678 202.633 36.5438C202.586 36.6817 202.553 36.8197 202.534 36.9538C202.51 37.0879 202.497 37.222 202.501 37.3522C203.189 37.1132 203.836 36.8255 204.483 36.4952C204.805 36.33 205.126 36.1531 205.443 35.9666C205.758 35.7781 206.057 35.5779 206.358 35.3661C206.08 35.6032 205.812 35.8325 205.515 36.0482C205.219 36.2639 204.92 36.4699 204.617 36.6642C204.314 36.8586 204.007 37.0432 203.696 37.2181C203.375 37.3891 203.051 37.5504 202.722 37.702C203.303 37.9624 204.04 38.0712 204.835 37.9896C205.233 37.9488 205.645 37.8594 206.061 37.7195C206.467 37.5757 206.873 37.3813 207.268 37.1287C208.962 36.0735 209.769 34.2876 209.427 33.0302C208.204 32.5191 206.315 33.0263 204.763 34.1029H204.761Z" fill="white"></path><path d="M204.644 27.5635C204.354 27.8628 204.08 28.1699 203.868 28.473C203.651 28.7781 203.48 29.0813 203.355 29.3767C203.077 29.9674 203.004 30.5291 203.118 31.0168C203.711 30.667 204.271 30.2784 204.823 29.8528C205.095 29.639 205.373 29.4155 205.627 29.1843C205.884 28.9511 206.132 28.7101 206.377 28.4575C206.162 28.7295 205.938 28.9919 205.711 29.2484C205.476 29.503 205.227 29.7498 204.978 29.9869C204.475 30.461 203.96 30.9002 203.388 31.3025C204.568 31.5785 206.261 31.1684 207.553 29.9363C208.254 29.2873 208.699 28.5158 208.927 27.7618C209.047 27.3848 209.078 27.0155 209.065 26.6696C209.049 26.3237 208.975 26.0031 208.841 25.7252C208.216 25.5969 207.489 25.7349 206.754 26.0652C206.018 26.3976 205.279 26.9184 204.644 27.5655V27.5635Z" fill="white"></path><path d="M203.493 21.3902C203.275 21.7206 203.075 22.0568 202.925 22.3813C202.776 22.7058 202.667 23.0207 202.601 23.3199C202.455 23.9224 202.469 24.4665 202.675 24.9018C203.641 24.037 204.548 23.0362 205.277 21.9227C204.966 22.5076 204.63 23.0673 204.233 23.6036C204.039 23.8718 203.839 24.1322 203.631 24.3849C203.425 24.6375 203.211 24.8824 202.978 25.1214C203.559 25.1447 204.222 24.9854 204.873 24.6453C205.52 24.3071 206.136 23.7883 206.643 23.0964C206.777 22.9138 206.898 22.7272 207.004 22.5368C207.109 22.3463 207.193 22.1559 207.269 21.9635C207.416 21.5787 207.51 21.192 207.551 20.8189C207.574 20.6323 207.576 20.4516 207.562 20.2767C207.551 20.1018 207.525 19.9327 207.488 19.7734C207.415 19.4527 207.288 19.1651 207.115 18.93C206.503 18.9202 205.846 19.1748 205.213 19.614C204.579 20.0532 203.975 20.6731 203.491 21.3902H203.493Z" fill="white"></path><path d="M200.818 17.7156C200.785 18.3064 200.894 18.8136 201.162 19.1867C201.916 18.2072 202.594 17.1112 203.086 15.9452C202.991 16.2464 202.888 16.5418 202.775 16.8333C202.666 17.1229 202.53 17.4163 202.396 17.7C202.26 17.9838 202.116 18.2636 201.967 18.5357C201.815 18.8097 201.662 19.074 201.485 19.3402C202.033 19.2605 202.627 18.9943 203.177 18.5629C203.723 18.1334 204.213 17.5407 204.569 16.8061C204.956 16.0268 205.076 15.232 205.029 14.5208C205.01 14.1632 204.919 13.8406 204.794 13.553C204.67 13.2673 204.503 13.0205 204.299 12.8281C203.16 13.0127 201.982 14.2429 201.322 15.7509C201.011 16.4544 200.832 17.1306 200.816 17.7136L200.818 17.7156Z" fill="white"></path><path d="M198.733 14.0396C199.01 13.513 199.247 12.9727 199.461 12.4092C199.568 12.1274 199.665 11.8417 199.757 11.5522C199.844 11.2646 199.918 10.975 199.986 10.6796C199.947 10.9769 199.906 11.2684 199.846 11.5619C199.784 11.8573 199.714 12.1488 199.636 12.4364C199.479 13.0135 199.3 13.5693 199.061 14.1271C200.058 13.7928 201.115 12.7182 201.517 11.2335C201.624 10.8409 201.688 10.4445 201.692 10.0733C201.692 9.70212 201.649 9.34649 201.564 9.02196C201.405 8.36511 201.043 7.85402 200.6 7.56641C199.56 7.93369 198.672 9.27459 198.305 10.7982C198.122 11.5152 198.087 12.1663 198.161 12.722C198.225 13.2837 198.425 13.7345 198.733 14.0416V14.0396Z" fill="white"></path><path d="M194.703 8.54794C194.86 9.05515 195.126 9.43604 195.453 9.6809C195.538 9.41078 195.62 9.13677 195.692 8.86082C195.758 8.58875 195.818 8.31474 195.869 8.0349C195.972 7.47911 196.045 6.90778 196.08 6.33255C196.115 7.47717 196.032 8.59264 195.775 9.70422C196.215 9.46325 196.632 9.05126 196.961 8.5149C197.287 7.98049 197.534 7.31199 197.594 6.5949C197.75 5.05773 197.081 3.71101 196.147 3.33789C195.69 3.59635 195.309 4.07441 195.033 4.67101C194.893 4.97028 194.782 5.29482 194.697 5.64267C194.609 5.99247 194.549 6.35976 194.522 6.73288C194.499 7.07879 194.504 7.40527 194.537 7.70648C194.574 8.00575 194.619 8.29725 194.701 8.54794H194.703Z" fill="white"></path><path d="M190.842 5.08179C190.963 5.2975 191.089 5.49961 191.237 5.65701C191.385 5.81637 191.548 5.9388 191.725 6.01847C191.795 5.49183 191.835 4.95742 191.845 4.41523C191.857 3.87304 191.82 3.3464 191.762 2.80422C191.818 3.06656 191.866 3.32891 191.907 3.58932C191.927 3.71952 191.946 3.85167 191.964 3.98187C191.977 4.11596 191.989 4.25005 192.001 4.38414C192.041 4.92049 192.051 5.45491 192.032 5.98349C192.774 5.38689 193.314 4.1762 193.217 2.79256C193.196 2.42332 193.118 2.08519 193.011 1.77231C192.902 1.45944 192.76 1.17377 192.595 0.925022C192.512 0.80065 192.424 0.68405 192.327 0.582997C192.23 0.483888 192.127 0.394494 192.022 0.316761C191.81 0.161295 191.585 0.0524697 191.355 0C190.594 0.623807 190.234 2.02689 190.386 3.41636C190.448 4.07321 190.607 4.64454 190.842 5.08179Z" fill="white"></path><path d="M186.927 58.1695C187.082 58.0821 187.226 57.9791 187.377 57.8839L188.273 57.3048C188.569 57.1085 188.852 56.8908 189.142 56.6849C189.428 56.475 189.723 56.2748 189.995 56.0455L190.825 55.377C190.893 55.3206 190.965 55.2662 191.031 55.2079L191.229 55.0311L191.626 54.6755L192.022 54.3198C192.154 54.2032 192.286 54.0827 192.411 53.9564L193.167 53.2063C193.423 52.9614 193.656 52.6933 193.895 52.4309C194.132 52.1666 194.375 51.9082 194.607 51.64L195.279 50.8141L195.615 50.4021L195.93 49.9726L196.558 49.1137C196.76 48.8222 196.948 48.5209 197.143 48.2256C197.543 47.6406 197.885 47.0188 198.243 46.4066C198.427 46.1035 198.579 45.7828 198.742 45.4699C198.901 45.1532 199.066 44.8403 199.222 44.5235L199.653 43.5538L199.869 43.068C199.943 42.9067 199.999 42.7396 200.065 42.5744C200.316 41.9136 200.582 41.2568 200.786 40.5786L200.951 40.0753L201.033 39.8226L201.103 39.5661L201.383 38.5439C201.719 37.1719 202.011 35.7844 202.164 34.3794L202.232 33.8547L202.275 33.3261C202.302 32.9744 202.335 32.6226 202.356 32.2709C202.378 31.5655 202.419 30.86 202.395 30.1546C202.401 29.4492 202.347 28.7437 202.308 28.0403C202.281 27.6885 202.238 27.3387 202.203 26.987L202.147 26.4603L202.067 25.9376C201.876 24.5403 201.562 23.1625 201.181 21.8061C201.08 21.4679 200.985 21.1298 200.878 20.7936L200.532 19.7947C200.423 19.4585 200.281 19.136 200.155 18.8095C200.025 18.483 199.9 18.1526 199.749 17.8359C198.618 15.2571 197.129 12.8396 195.337 10.6747L194.653 9.87213C194.418 9.61172 194.173 9.35909 193.934 9.10257C193.812 8.97626 193.697 8.84411 193.571 8.72168L193.192 8.35634L192.813 7.99099L192.624 7.80832L192.426 7.63536L191.635 6.9416C191.367 6.71423 191.087 6.50241 190.815 6.28281C190.677 6.17398 190.541 6.06321 190.403 5.95633L189.976 5.64929L189.548 5.34224C189.404 5.24119 189.264 5.1343 189.115 5.04297C189.262 5.13625 189.4 5.24507 189.542 5.34807L189.966 5.66095L190.39 5.97382C190.528 6.08265 190.662 6.19536 190.798 6.30613C191.068 6.52961 191.344 6.74532 191.608 6.97658L192.387 7.68006L192.582 7.8569L192.768 8.04152L193.141 8.41269L193.512 8.78387C193.637 8.9063 193.75 9.04039 193.87 9.16865C194.105 9.42905 194.344 9.68363 194.575 9.94597L195.244 10.7544C196.997 12.9367 198.441 15.362 199.527 17.935C199.673 18.2517 199.791 18.5821 199.916 18.9066C200.036 19.2331 200.174 19.5557 200.275 19.89L200.604 20.8849C200.703 21.2192 200.794 21.5573 200.889 21.8916C201.249 23.2403 201.54 24.6064 201.707 25.992L201.777 26.5109L201.826 27.0317C201.855 27.3795 201.894 27.7254 201.915 28.0733C201.945 28.769 201.987 29.4647 201.974 30.1624C201.987 30.86 201.935 31.5538 201.906 32.2495C201.88 32.5974 201.842 32.9433 201.81 33.2892L201.76 33.808L201.686 34.325C201.515 35.7067 201.208 37.067 200.86 38.4118L200.571 39.4126L200.499 39.6633L200.415 39.9101L200.246 40.4037C200.036 41.0664 199.764 41.7077 199.51 42.3528C199.443 42.5122 199.387 42.6774 199.311 42.8348L199.094 43.307L198.656 44.2534C198.499 44.5624 198.334 44.8675 198.173 45.1745C198.007 45.4796 197.856 45.7925 197.671 46.086C197.314 46.6806 196.97 47.285 196.569 47.8505C196.373 48.1362 196.186 48.4296 195.984 48.7094L195.359 49.5412L195.046 49.9571L194.712 50.3554L194.043 51.1522C193.814 51.4107 193.573 51.6614 193.338 51.9159C193.101 52.1686 192.871 52.427 192.617 52.6622L191.87 53.3831C191.748 53.5056 191.618 53.6202 191.488 53.7329L191.095 54.073L190.704 54.4131L190.508 54.5841C190.442 54.6385 190.372 54.691 190.304 54.7454L189.488 55.3848C189.22 55.6044 188.93 55.7948 188.648 55.995C188.363 56.1912 188.087 56.3992 187.795 56.5857L186.917 57.1376C186.769 57.227 186.627 57.3261 186.476 57.4097L186.023 57.6623C185.72 57.8295 185.421 58.0024 185.115 58.1637L184.185 58.6204C184.029 58.6962 183.876 58.7739 183.718 58.8478L183.242 59.0518L182.537 59.353C182.509 59.3627 182.482 59.3764 182.455 59.388L182.292 59.458V59.4638C179.88 60.5929 177.935 62.5304 176.806 64.9517L176.652 65.2802L177.523 65.6863L177.676 65.3579C178.745 63.0687 180.611 61.2458 182.923 60.2295L183.629 59.9147L184.117 59.697C184.276 59.6193 184.433 59.5357 184.593 59.456L185.545 58.9721C185.856 58.8011 186.163 58.6185 186.472 58.4416L186.934 58.1754L186.927 58.1695Z" fill="white"></path></svg>